<?xml version="1.0" encoding="UTF-8"?>
<!DOCTYPE svg PUBLIC "-//W3C//DTD SVG 1.1//EN" "http://www.w3.org/Graphics/SVG/1.1/DTD/svg11.dtd">
<!-- Creator: CorelDRAW 2020 (64-Bit) -->
<svg xmlns="http://www.w3.org/2000/svg" xml:space="preserve" width="5in" height="5in" version="1.1" style="shape-rendering:geometricPrecision; text-rendering:geometricPrecision; image-rendering:optimizeQuality; fill-rule:evenodd; clip-rule:evenodd"
viewBox="0 0 5000 5000"
 xmlns:xlink="http://www.w3.org/1999/xlink"
 xmlns:xodm="http://www.corel.com/coreldraw/odm/2003">
 <defs>
  <style type="text/css">
   <![CDATA[
    .fil22 {fill:black}
    .fil4 {fill:#87C4E7}
    .fil0 {fill:white}
    .fil1 {fill:#6699FF;fill-rule:nonzero}
    .fil21 {fill:url(#id0)}
    .fil9 {fill:url(#id1)}
    .fil15 {fill:url(#id2)}
    .fil16 {fill:url(#id3)}
    .fil11 {fill:url(#id4)}
    .fil2 {fill:url(#id5)}
    .fil20 {fill:url(#id6)}
    .fil10 {fill:url(#id7)}
    .fil13 {fill:url(#id8)}
    .fil6 {fill:url(#id9)}
    .fil12 {fill:url(#id10)}
    .fil19 {fill:url(#id11)}
    .fil7 {fill:url(#id12)}
    .fil8 {fill:url(#id13)}
    .fil14 {fill:url(#id14)}
    .fil5 {fill:url(#id15)}
    .fil18 {fill:url(#id16)}
    .fil3 {fill:url(#id17)}
    .fil17 {fill:url(#id18)}
    .fil23 {fill:url(#id19);fill-rule:nonzero}
   ]]>
  </style>
  <linearGradient id="id0" gradientUnits="userSpaceOnUse" x1="1826.76" y1="2183.37" x2="1889.94" y2="2288.96">
   <stop offset="0" style="stop-opacity:1; stop-color:#87C4E7"/>
   <stop offset="1" style="stop-opacity:1; stop-color:blue"/>
  </linearGradient>
  <linearGradient id="id1" gradientUnits="userSpaceOnUse" xlink:href="#id0" x1="2489.03" y1="3318.66" x2="2498.15" y2="3542.9">
  </linearGradient>
  <linearGradient id="id2" gradientUnits="userSpaceOnUse" xlink:href="#id0" x1="1498.39" y1="2260.72" x2="1613.03" y2="2500.28">
  </linearGradient>
  <linearGradient id="id3" gradientUnits="userSpaceOnUse" xlink:href="#id0" x1="3372.59" y1="2248.51" x2="3488.1" y2="2486.39">
  </linearGradient>
  <linearGradient id="id4" gradientUnits="userSpaceOnUse" xlink:href="#id0" x1="3176.07" y1="1550.24" x2="3351.47" y2="1952.75">
  </linearGradient>
  <linearGradient id="id5" gradientUnits="userSpaceOnUse" xlink:href="#id0" x1="2465.28" y1="2562.81" x2="2519.65" y2="3321.67">
  </linearGradient>
  <linearGradient id="id6" gradientUnits="userSpaceOnUse" xlink:href="#id0" x1="3105.23" y1="2167.23" x2="3166.24" y2="2278.98">
  </linearGradient>
  <linearGradient id="id7" gradientUnits="userSpaceOnUse" xlink:href="#id0" x1="1753.01" y1="993.92" x2="1847.25" y2="1301.05">
  </linearGradient>
  <linearGradient id="id8" gradientUnits="userSpaceOnUse" xlink:href="#id0" x1="1600.53" y1="1724.46" x2="1655.91" y2="1952.13">
  </linearGradient>
  <linearGradient id="id9" gradientUnits="userSpaceOnUse" xlink:href="#id0" x1="1095.89" y1="2686.56" x2="1221.89" y2="3297.64">
  </linearGradient>
  <linearGradient id="id10" gradientUnits="userSpaceOnUse" xlink:href="#id0" x1="1625.53" y1="1575.44" x2="1799.74" y2="1978.22">
  </linearGradient>
  <linearGradient id="id11" gradientUnits="userSpaceOnUse" xlink:href="#id0" x1="3360.94" y1="1520.42" x2="3378.94" y2="1646.69">
  </linearGradient>
  <linearGradient id="id12" gradientUnits="userSpaceOnUse" xlink:href="#id0" x1="3111.11" y1="2115.52" x2="3238.37" y2="2566.63">
  </linearGradient>
  <linearGradient id="id13" gradientUnits="userSpaceOnUse" xlink:href="#id0" x1="1745.15" y1="2125" x2="1865.13" y2="2568.93">
  </linearGradient>
  <linearGradient id="id14" gradientUnits="userSpaceOnUse" xlink:href="#id0" x1="3315.09" y1="1721.06" x2="3364.35" y2="1942.01">
  </linearGradient>
  <linearGradient id="id15" gradientUnits="userSpaceOnUse" xlink:href="#id0" x1="3772.7" y1="2673.6" x2="3894.48" y2="3280.73">
  </linearGradient>
  <linearGradient id="id16" gradientUnits="userSpaceOnUse" xlink:href="#id0" x1="1601.13" y1="1541.11" x2="1621.86" y2="1672.36">
  </linearGradient>
  <linearGradient id="id17" gradientUnits="userSpaceOnUse" x1="1905.89" y1="1333.28" x2="4408.54" y2="1332.31">
   <stop offset="0" style="stop-opacity:1; stop-color:#0A7DBF"/>
   <stop offset="0.180392" style="stop-opacity:1; stop-color:#AACAFA"/>
   <stop offset="0.341176" style="stop-opacity:1; stop-color:#3250BA"/>
   <stop offset="0.521569" style="stop-opacity:1; stop-color:#87C4E7"/>
   <stop offset="1" style="stop-opacity:1; stop-color:blue"/>
  </linearGradient>
  <linearGradient id="id18" gradientUnits="userSpaceOnUse" xlink:href="#id0" x1="2466.12" y1="617.13" x2="2515.94" y2="972.49">
  </linearGradient>
  <linearGradient id="id19" gradientUnits="userSpaceOnUse" xlink:href="#id0" x1="2467.62" y1="3216.58" x2="2478.8" y2="3402.78">
  </linearGradient>
 </defs>
 <g id="Layer_x0020_1">
  <metadata id="CorelCorpID_0Corel-Layer"/>
  <g id="_2352234086576">
   <rect class="fil0" width="5000" height="5000"/>
   <g>
    <path class="fil1" d="M438.37 3709.24l122.12 0c28.41,0 48.51,4.75 60.3,14.24 11.8,9.5 20.23,20.4 25.3,32.72 5.07,12.32 7.61,25.74 7.61,40.29 0,26.93 -4.37,46.3 -13.12,58.02 -8.75,11.72 -15.54,19.66 -20.35,23.81 -4.82,4.15 -10.4,8.16 -16.74,12.02l37.66 134.8 -93.97 9.87 -37.28 -146.82 -14.46 138.44 -91.31 7.13 34.24 -324.51zm72.67 170.04l7.61 0c11.16,0 21.05,-4.75 29.67,-14.24 8.63,-9.5 12.94,-20.63 12.94,-33.39 0,-23.74 -11.79,-35.61 -35.38,-35.61l-6.09 0 -8.75 83.24z"/>
    <polygon id="1" class="fil1" points="759.37,3712.35 850.68,3706.12 816.82,4026.62 725.51,4033.74 "/>
    <path id="2" class="fil1" d="M930.09 3940.26l11.42 2.22 17.12 3.56c9.89,2.07 19.4,3.11 28.54,3.11 22.82,0 34.24,-6.97 34.24,-20.92 0,-5.04 -1.46,-8.98 -4.37,-11.8 -2.92,-2.82 -10.21,-6.75 -21.87,-11.8 -11.67,-5.05 -20.8,-10.54 -27.39,-16.47l-6.09 -5.34 -10.28 -12.02c-7.35,-8.91 -12.3,-16.99 -14.83,-24.26 -2.54,-7.27 -3.8,-16.55 -3.8,-27.82 0,-33.24 11.41,-60.98 34.24,-83.24 22.83,-22.26 51.23,-33.39 85.22,-33.39 14.96,0 27.58,0.74 37.85,2.22 10.27,1.48 22.39,4.6 36.33,9.35l-9.51 89.03c-5.07,-2.37 -8.37,-3.86 -9.89,-4.45 -1.52,-0.59 -6.85,-2.08 -15.98,-4.45 -9.13,-2.37 -19.27,-3.56 -30.43,-3.56l-14.46 0c-8.11,0 -14.59,1.63 -19.41,4.9 -4.82,3.26 -7.23,7.57 -7.23,12.91 0,2.44 0.57,4.45 1.71,6.08 1.14,1.63 3.49,3.63 7.04,6.01l11.03 7.12 12.56 7.12 8.37 5.79 6.85 4.9c7.61,6.23 13.25,11.06 16.93,14.32 3.68,3.26 9,9.2 15.98,17.8 6.98,8.61 10.46,24.56 10.46,47.7 0,14.61 -3.43,29.6 -10.27,45.04 -6.85,15.5 -18.07,30.64 -33.67,45.48 -15.6,14.91 -42.68,22.33 -81.23,22.33 -13.69,0 -26.19,-0.89 -37.47,-2.67 -11.29,-1.78 -24.54,-5.05 -39.76,-9.8l22.07 -85.02z"/>
    <polygon id="3" class="fil1" points="1226.36,3709.24 1393,3709.24 1400.61,3796.04 1307.78,3796.04 1304.35,3828.54 1365.61,3828.54 1358,3905.99 1296.37,3905.99 1292.18,3943.38 1390.72,3943.38 1362.94,4030.18 1192.5,4030.18 "/>
    <polygon id="4" class="fil1" points="1728.08,3712.35 1819.39,3706.12 1807.97,3816.07 1862.37,3816.07 1873.03,3712.35 1964.34,3706.12 1930.85,4026.62 1839.55,4033.74 1852.87,3906.88 1798.46,3906.88 1785.52,4026.62 1694.22,4033.74 "/>
    <polygon id="5" class="fil1" points="2065.82,3712.35 2157.13,3706.12 2123.26,4026.62 2031.96,4033.74 "/>
    <path id="6" class="fil1" d="M2469 3810.73c-3.3,-1.19 -6.47,-2.45 -9.51,-3.78 -3.05,-1.33 -8.56,-3.34 -16.55,-6.01 -7.99,-2.67 -20.35,-4.01 -37.09,-4.01 -28.41,0 -47.43,5.64 -57.07,16.91 -9.64,11.28 -16.23,22.26 -19.78,32.94 -3.55,10.69 -5.33,21.81 -5.33,33.39 0,43.33 19.53,64.99 58.59,64.99 1.77,0 3.68,0 5.71,0 2.53,-0.59 4.56,-1.19 6.09,-1.78l3.04 -32.05 -43.37 0 22.45 -70.33 110.71 0 -17.88 167.45 -15.98 9.79c-23.33,11.8 -49.46,17.73 -78.37,17.73 -42.1,0 -75.83,-13.65 -101.2,-40.88 -25.36,-27.3 -38.04,-63.73 -38.04,-109.36 0,-50.67 15.72,-93.85 47.18,-129.39 31.45,-35.54 69.62,-53.34 114.51,-53.34 7.11,0 14.65,0.44 22.64,1.33 7.99,0.89 15.47,2.08 22.44,3.56 6.98,1.48 13.51,3.11 19.59,4.9 6.09,1.78 11.67,3.41 16.74,4.89l-9.51 93.04z"/>
    <polygon id="7" class="fil1" points="2603.19,3712.35 2694.5,3706.12 2683.09,3816.07 2737.49,3816.07 2748.14,3712.35 2839.45,3706.12 2805.97,4026.62 2714.67,4033.74 2727.98,3906.88 2673.58,3906.88 2660.64,4026.62 2569.33,4033.74 "/>
    <polygon id="8" class="fil1" points="3161.59,3712.35 3252.9,3706.12 3241.49,3816.07 3295.89,3816.07 3306.55,3712.35 3397.85,3706.12 3364.37,4026.62 3273.07,4033.74 3286.38,3906.88 3231.98,3906.88 3219.04,4026.62 3127.74,4033.74 "/>
    <path id="9" class="fil1" d="M3531.29 3750.56c30.19,-31.38 66.71,-47.11 109.57,-47.11 38.8,0 69.94,13.43 93.4,40.21 23.46,26.85 35.19,62.32 35.19,106.46 0,32.35 -7.93,63.73 -23.78,94.3 -15.85,30.49 -35.63,53.42 -59.35,68.63 -23.72,15.28 -50.79,22.93 -81.22,22.93 -39.06,0 -70.32,-13.43 -93.78,-40.21 -23.46,-26.85 -35.19,-62.61 -35.19,-107.35 0,-6.83 0.5,-13.06 1.52,-18.7 2.03,-21.96 7.86,-43.55 17.5,-64.92 9.64,-21.29 21.69,-39.39 36.14,-54.23zm33.86 119.37l-0.38 11.13c0,18.4 4.56,33.39 13.7,44.96 9.13,11.57 21.31,17.36 36.52,17.36 18.52,0 34.18,-8.23 46.98,-24.7 12.81,-16.47 19.22,-36.43 19.22,-59.87 0,-18.4 -4.7,-33.39 -14.08,-44.96 -9.39,-11.57 -21.56,-17.36 -36.52,-17.36 -16.49,0 -30.94,6.97 -43.37,20.92 -12.43,13.95 -19.79,31.46 -22.07,52.53z"/>
    <polygon id="10" class="fil1" points="3883.11,3709.24 4068.39,3709.24 4058.11,3806.72 4002.19,3806.72 3978.98,4026.62 3887.67,4033.74 3911.64,3805.39 3852.67,3805.39 "/>
    <polygon id="11" class="fil1" points="4156.93,3709.24 4323.57,3709.24 4331.18,3796.04 4238.35,3796.04 4234.93,3828.54 4296.17,3828.54 4288.57,3905.99 4226.94,3905.99 4222.75,3943.38 4321.29,3943.38 4293.51,4030.18 4123.07,4030.18 "/>
    <polygon id="12" class="fil1" points="4437.98,3712.35 4529.29,3706.12 4504.94,3938.48 4595.87,3938.48 4568.48,4030.18 4404.5,4030.18 "/>
    <path class="fil1" d="M817.47 4163.67l96.36 0c22.41,0 38.27,3.75 47.58,11.24 9.3,7.49 15.96,16.09 19.96,25.81 4,9.72 6,20.31 6,31.79 0,21.25 -3.45,36.52 -10.35,45.78 -6.91,9.25 -12.26,15.51 -16.06,18.79 -3.8,3.28 -8.2,6.44 -13.2,9.48l29.71 106.36 -74.14 7.78 -29.41 -115.84 -11.41 109.22 -72.04 5.62 27.01 -256.04zm57.33 134.16l6 0c8.8,0 16.61,-3.74 23.41,-11.24 6.81,-7.49 10.21,-16.27 10.21,-26.34 0,-18.73 -9.31,-28.09 -27.92,-28.09l-4.8 0 -6.91 65.67z"/>
    <polygon id="1" class="fil1" points="1113.13,4163.67 1244.6,4163.67 1250.61,4232.16 1177.36,4232.16 1174.66,4257.8 1222.99,4257.8 1216.98,4318.91 1168.36,4318.91 1165.06,4348.41 1242.8,4348.41 1220.89,4416.89 1086.41,4416.89 "/>
    <path id="2" class="fil1" d="M1433.39 4163.67l80.75 0 47.43 249.24 -74.14 7.78 -4.2 -43.84 -63.94 0 -13.21 43.84 -72.34 -7.78 99.66 -249.24zm4.81 151.37l39.62 0 -10.51 -89.56 -29.11 89.56z"/>
    <polygon id="3" class="fil1" points="1693.02,4166.13 1765.06,4161.21 1745.85,4344.54 1817.6,4344.54 1795.98,4416.89 1666.61,4416.89 "/>
    <path id="4" class="fil1" d="M2358.48 4236.02c-4.6,-1.17 -8.95,-1.99 -13.06,-2.46 -4.1,-0.47 -8.65,-0.7 -13.66,-0.7 -20.41,0 -36.77,6.03 -49.08,18.09 -12.31,12.06 -18.46,28.16 -18.46,48.29 0,15.69 4.2,27.75 12.61,36.18 8.41,8.43 20.51,12.64 36.32,12.64 5.6,0 11.06,-0.76 16.36,-2.28 5.3,-1.52 11.56,-4.04 18.76,-7.55l-17.11 79.73c-13.81,3.28 -26.71,4.92 -38.72,4.92 -30.62,0 -55.58,-10.83 -74.89,-32.49 -19.31,-21.66 -28.96,-49.58 -28.96,-83.76 0,-20.61 3.65,-40.22 10.95,-58.83 7.3,-18.61 16.96,-34.01 28.96,-46.19 12.01,-12.17 24.82,-21.77 38.43,-28.8 13.61,-7.02 25.16,-11.12 34.67,-12.29 9.5,-1.17 18.96,-1.76 28.37,-1.76 12.81,0 24.91,1.29 36.32,3.86l-7.81 73.41z"/>
    <path id="5" class="fil1" d="M2512.16 4196.28c23.81,-24.76 52.63,-37.17 86.45,-37.17 30.62,0 55.18,10.59 73.69,31.73 18.51,21.19 27.76,49.17 27.76,84 0,25.52 -6.25,50.28 -18.76,74.4 -12.51,24.06 -28.11,42.15 -46.83,54.14 -18.71,12.06 -40.07,18.09 -64.09,18.09 -30.82,0 -55.48,-10.59 -74,-31.73 -18.51,-21.19 -27.76,-49.4 -27.76,-84.7 0,-5.39 0.4,-10.3 1.2,-14.75 1.6,-17.33 6.2,-34.36 13.81,-51.22 7.61,-16.8 17.11,-31.08 28.52,-42.79zm26.71 94.18l-0.3 8.78c0,14.52 3.6,26.34 10.81,35.47 7.2,9.13 16.81,13.7 28.81,13.7 14.61,0 26.96,-6.5 37.07,-19.49 10.1,-12.99 15.16,-28.74 15.16,-47.24 0,-14.52 -3.7,-26.34 -11.11,-35.47 -7.41,-9.13 -17.01,-13.7 -28.82,-13.7 -13.01,0 -24.41,5.5 -34.22,16.51 -9.8,11 -15.61,24.82 -17.41,41.44z"/>
    <polygon id="6" class="fil1" points="2841.13,4163.67 2912.57,4163.67 2934.78,4265.17 2978,4163.67 3049.15,4163.67 3044.34,4413.03 2972.3,4420.76 2975.91,4291.51 2917.97,4423.51 2887.65,4291.51 2864.24,4420.76 2794,4413.03 "/>
    <polygon id="7" class="fil1" points="3182.41,4163.67 3298.28,4163.67 3306.08,4236.02 3246.34,4236.02 3242.74,4269.03 3283.57,4269.03 3276.66,4334.36 3235.83,4334.36 3227.43,4414.08 3155.39,4419.7 "/>
    <path id="8" class="fil1" d="M3448.04 4196.28c23.81,-24.76 52.63,-37.17 86.45,-37.17 30.62,0 55.18,10.59 73.69,31.73 18.51,21.19 27.77,49.17 27.77,84 0,25.52 -6.26,50.28 -18.76,74.4 -12.51,24.06 -28.11,42.15 -46.83,54.14 -18.71,12.06 -40.07,18.09 -64.09,18.09 -30.82,0 -55.48,-10.59 -74,-31.73 -18.51,-21.19 -27.76,-49.4 -27.76,-84.7 0,-5.39 0.4,-10.3 1.2,-14.75 1.6,-17.33 6.2,-34.36 13.81,-51.22 7.61,-16.8 17.11,-31.08 28.52,-42.79zm26.72 94.18l-0.3 8.78c0,14.52 3.6,26.34 10.81,35.47 7.2,9.13 16.81,13.7 28.81,13.7 14.61,0 26.96,-6.5 37.07,-19.49 10.11,-12.99 15.16,-28.74 15.16,-47.24 0,-14.52 -3.7,-26.34 -11.11,-35.47 -7.41,-9.13 -17.01,-13.7 -28.82,-13.7 -13.01,0 -24.42,5.5 -34.22,16.51 -9.81,11 -15.61,24.82 -17.41,41.44z"/>
    <path id="9" class="fil1" d="M3766.8 4163.67l96.36 0c22.41,0 38.27,3.75 47.58,11.24 9.3,7.49 15.96,16.09 19.96,25.81 4,9.72 6,20.31 6,31.79 0,21.25 -3.45,36.52 -10.35,45.78 -6.91,9.25 -12.26,15.51 -16.06,18.79 -3.8,3.28 -8.2,6.44 -13.2,9.48l29.71 106.36 -74.14 7.78 -29.41 -115.84 -11.41 109.22 -72.04 5.62 27.01 -256.04zm57.33 134.16l6 0c8.8,0 16.61,-3.74 23.41,-11.24 6.81,-7.49 10.21,-16.27 10.21,-26.34 0,-18.73 -9.31,-28.09 -27.92,-28.09l-4.8 0 -6.91 65.67z"/>
    <polygon id="10" class="fil1" points="4063.36,4163.67 4209.54,4163.67 4201.44,4240.59 4157.31,4240.59 4139,4414.08 4066.96,4419.7 4085.87,4239.53 4039.34,4239.53 "/>
    <g>
     <path class="fil2" d="M2164.31 2888.67c11.87,-13.89 42.36,20.74 12.44,6.79 -0.25,-0.12 -31.13,15.09 -12.44,-6.79zm-234.46 -195.95c-145.52,-39.67 -88.41,-65.31 -290.28,-65.31 -103.82,0 -239.83,94.75 -290.65,221.65 -96.43,240.81 46.03,470.69 190.17,470.69 71.28,0 153.3,2.69 215.44,-74.49 74.76,-92.85 82.55,-239.04 17.44,-341.69l-75.35 -68.59c-169.07,-80.15 -248.89,249.64 -57.06,249.64 56.99,0 61.89,-37.11 75.69,-55.13 17.22,-22.46 -2.87,-11.54 24.79,-23.25 0,404.24 -538.82,99.39 -260.25,-213.06 158.37,-177.63 442.09,-3.31 517.04,17.11l0 26.12c-36.88,3.59 -66.98,17 -100.48,26.14l0 26.12c86.77,0 169.2,18.59 240.99,70.74l172.11 151.33c-6.07,-85.31 -106.81,-157.3 -122.82,-209 61.96,16.88 255.37,198.32 286.13,247.88 17.93,28.9 12.24,-13.35 4.17,13.37l-66.04 0.39c-260.24,-23.68 -487.74,-201.02 -514.54,-209.4 6.65,29.1 1.24,13.49 16.24,33.27 0.83,1.08 29.98,28.06 31.08,28.96 162,131.78 381.82,225.17 589.08,225.17 55.19,0 252.44,-63.78 316.39,-100.09 125.44,-71.19 149.74,-82.26 253.02,-187.31 -32.19,3.13 -16.3,2.16 -35.53,10.69 -24.35,10.81 -93.55,66.81 -162.38,97.41l-230.64 82.83c-60.95,16.8 -118.3,15.86 -174.35,31.15 51.13,-89.33 141.88,-153.09 215.24,-218.44 29.5,-26.28 47,-45.2 86.21,-55.88 -36.05,62.98 -65.83,58.32 -133.98,209 71.12,-22.22 173.21,-235.14 435.43,-235.14 -39.74,-63.46 -56.64,-21.37 -111.65,-52.24 45.14,-72.09 307.13,-155.6 434.37,-103.36 11.96,4.91 23.92,10.75 38.99,19.78l39.46 32.22c173.54,198.12 30.95,388.89 -70.66,412.89 -46.42,10.96 -109.46,-13.45 -137.18,-39.09 -33.88,-31.35 -46.97,-88.5 -48.19,-152.62 63.72,26.98 5.13,78.38 133.98,78.38 64,0 136.63,-191.06 8.02,-245.44 -78.19,-33.08 -146.27,13.66 -184.92,90.72 -94.46,188.4 25.13,402.97 220.35,397.88 142.34,-3.7 246.83,-140.34 246.83,-282.35 0,-134.17 -7.56,-211.95 -108.79,-316.87 -91.73,-95.07 -175.04,-101.15 -293.14,-101.15 -67.23,0 -145.65,50.24 -200.97,65.31 18.89,-82.78 89.31,-122.6 89.31,-248.19l-44.65 0c-16.89,84.78 -54.32,157.82 -100.44,209.04 -78.94,87.67 -299.31,213.32 -432.95,342.56 -24.65,23.83 -57.63,57.36 -80.68,75.43 -82.18,-50.88 -168.8,-166.83 -312.33,-248.54 -55.61,-31.66 -186.69,-126.43 -225.57,-180.21 -102.98,-142.39 -30.95,-188.45 -131.99,-198.28 2.04,107.35 66.32,185.7 100.48,261.26z"/>
     <path class="fil3" d="M3124.48 1242.71l3.34 3.9c-0.22,-0.26 -4.44,-2.61 -3.34,-3.9zm-268.85 -137.12c43.39,11.35 15.81,8.64 23.24,32.62l-66.99 0 0 -26.12c21.67,-2.65 34.78,-8.86 43.76,-6.5zm-468.03 32.62c28.02,-44.74 74.14,-51.04 89.33,-117.57 54.71,17.09 15.22,18.31 58.51,62.18 24.16,24.47 15.73,7.41 34.48,24.96 20.24,18.96 9.27,0.09 18.65,30.43l-200.97 0zm-223.29 -261.26c0,61.65 -4.64,72.41 10.81,117.97 7.32,21.56 24.79,68.95 33.85,91.03 -42.61,-11.6 -46.72,-27.57 -89.33,-39.19 -32.43,25.41 -14.98,26.43 -55.82,39.19 -19.67,-43.49 -44.66,-91.46 -44.66,-156.76 0,-119.57 143.75,-52.63 145.15,-52.24zm524.74 222.07c-64.46,-17.57 -150.58,-55.76 -172.05,-126.73 -40.73,-134.71 239.04,-233.96 239.04,-95.33 0,138.98 -2.97,110.21 -66.99,222.07zm-468.93 -209.01c0,-69.25 69.54,-78.38 111.65,-78.38 33.11,0 231.03,110.54 69.64,238.24 -15.41,12.19 -73.81,49.15 -91.96,49.15 -65.84,0 -89.33,-143.36 -89.33,-209.01zm692.23 182.89c-47.98,-29.72 -20.28,3.53 -33.49,-39.19 -53.83,5.23 -51.48,25.83 -100.48,39.19l36.67 -168.15c12.59,-92.43 153.12,-77.18 153.12,37.51 0,28.93 -35.37,94.9 -55.82,130.64zm-413.1 -195.95l-22.33 0c-26.67,-116.91 -171.85,-168.52 -256.74,-103.83 -39,29.7 -14.87,35.61 -61.09,31.21 -40.14,-3.81 -88.41,-29.27 -142.71,17.02 -105.92,90.26 -16.77,248.93 13.95,316.87 -68,6.62 -180.9,139.61 -237.04,192.94 -29.68,28.2 -55.25,45.89 -75.57,81.39 15.7,68.86 157.71,167.02 175,394.94l-7.54 205.96 44.67 0c1.09,-57.4 7.56,-40.69 11.17,-91.43 53.67,22.73 -9.02,3.39 44.65,26.12l0 -26.12c-55.58,-17.37 -28.54,-48.4 -34.91,-128.97 -3.11,-39.42 -20.96,-107.11 -34.09,-143.01 -9.92,-27.11 -0.56,-1.08 -10.71,-26.66 -54.83,-138.11 -66.8,-102.05 -110.09,-197.75l206.58 -202.46c35.22,-15.74 88.52,-6.71 128.35,-6.57l537.56 -8.47c72.07,0.62 269.75,-27.28 327.55,15.23 53.74,39.53 151.04,149.17 195.56,163.09 -3.43,48.32 -19.13,57.59 -43,93.37 -19.59,29.38 -33.14,49.5 -50.08,85.09 -114.49,240.52 -42.08,372.89 -40.89,435.5 127.12,-3.31 -14.82,-76.48 60.7,-333.94l50.2 -111.09c1.31,-2.37 2.99,-5.66 4.31,-8.01l18.65 -30.44c1.44,-2.13 3.56,-5.07 5.03,-7.19l73.25 -136.36c-36.28,-11.34 -115.65,-85.54 -133.98,-117.57 32.61,8.89 34.05,15.28 66.02,28.22 15.85,6.42 12.38,7.07 34.69,11.69 101.02,20.95 -12.25,-46.11 -82,-153.26 -18.33,-28.14 -7.71,-12.63 -21.63,-26.95 -0.16,-0.15 -75.54,-34.5 -1.2,-112.71 30.74,-32.35 42.04,-21.32 93.43,-21.32l-37.09 22.56c-25.29,21.69 -10.57,-16.96 -24.12,36.61 -25.21,99.73 128.2,141.13 128.2,-19.98 0,-163.28 -245.61,-171.68 -245.61,65.31 0,72.9 42.81,86.71 55.82,143.7 -24.56,-19.24 -44.57,-40.35 -68.94,-63.03 -52.78,-49.11 -34.94,-12.05 -87.36,-41.49 54.66,-95.5 118.69,-268.03 1.74,-328.62 -73,-37.82 -104.94,27.24 -173.99,-17.61 -145.95,-94.81 -253.94,8.61 -274.35,98.04z"/>
     <path class="fil4" d="M2421.1 1882.81c0,-51.09 65.66,-38.91 91.61,-29.15 66.67,25.1 79.61,156.74 -14.84,185.81 -17.14,5.28 -51.1,8.21 -54.66,7.02 -27.13,-9.04 -22.11,43.34 -22.11,-163.69zm-111.64 0l0 404.94c0,78.72 -48.58,-10.43 -55.83,91.45 177.82,0 250.81,31.8 256.8,-52.26 -44.08,0 -45.31,-4.11 -78.16,-13.06 -12.8,-101.97 -7.67,-178.45 -11.17,-195.94 38.09,23.57 25.73,15.72 53.59,54.86 18.67,26.22 25.54,40.35 44.41,65.62 19.46,26.06 27.57,38.57 45.65,64.14 25.16,35.62 35.48,29.93 46.15,76.63 72.38,0 108.72,2.95 167.47,-13.07 -18.93,-82.92 -9.04,13.89 -114.49,-127.32 -43.11,-57.72 -86.56,-91.28 -97.65,-147.01 131.19,-12.76 204.5,-313.52 -100.48,-313.52l-178.64 0c-28.92,0 -16.69,-5.4 -28.07,21.07 -25.7,59.72 50.41,16.03 50.41,83.44z"/>
     <path class="fil5" d="M3984.17 3293.63c275.52,0 249.26,-431.08 44.66,-431.08 -65.04,0 -119.52,42.28 -144.09,106.2 -17.55,45.64 -12.58,5.68 -1.06,63.61 1.57,-2.62 3.36,-10.35 3.98,-8.39 0.17,0.51 42.37,-96.11 85.34,-96.11 233.47,0 158.86,274.33 33.5,274.33 -89.2,0 -143.05,-31.89 -186.36,-134.67 -34.77,-82.53 -34.88,-165.54 -70.44,-244.16 43.86,-24.63 74.44,-26.22 89.33,-91.45 -77.14,-43.31 -36.13,41.3 -181.76,-87.79 -42.18,-37.4 -109.8,-93.37 -175.52,-95.09 35.17,61.45 63.44,29.89 148.04,153.36 48.46,70.76 69.22,132.64 87.32,237.47 28.52,165.2 95.47,353.77 267.05,353.77z"/>
     <path class="fil6" d="M1237.64 2836.41c-32.07,161.09 -65.3,391.89 -245.63,391.89 -125.96,0 -164.21,-231.23 -35.64,-277.91 70.6,-25.61 116.66,25.3 150.41,91.39 1.08,2.11 3.2,6.59 4.07,8.3 0.85,1.74 2.41,5.77 3.98,8.41 0,-244.45 -301.45,-223.59 -301.45,39.19 0,123.88 77.58,206.9 182.99,213.5 96.74,6.05 185.69,-60.74 231.46,-159.67 22.68,-49.02 28.93,-117.32 43.31,-171.39 29.88,-112.21 71.7,-347.55 234.45,-391.91 -25.34,-40.48 -1.02,-29.22 -45.94,-16.97 -16.87,4.58 -20.37,7.89 -32.98,15.2l-78.44 65.85c-141.65,129.19 -142.05,70.45 -175.9,90.91 -37.13,22.43 9.11,87.74 65.3,93.2z"/>
     <path class="fil7" d="M2979.35 2222.45c0,174.33 142.51,211.96 212.83,145.14 34.41,-32.68 32.78,-49.97 32.78,-119.02 -30.65,26.28 -37.85,78.38 -89.31,78.38 -136.26,0 -68.48,-235.14 0,-235.14 156.74,0 178.64,91.44 178.64,261.27 -32.03,-15.12 -10.88,-23.3 -44.66,-52.26 0,191.63 -72.77,214.83 -89.31,287.39 311.38,-192.78 187.5,-571.75 6.94,-581.19 -102.74,-5.37 -207.91,64 -207.91,215.42z"/>
     <path class="fil8" d="M1606.08 2287.76c0,105.49 106.07,274.3 189.8,300.46 -10.72,-47.01 -7.6,-21.2 -28.38,-58.24 -44.07,-78.49 -49.77,-118.56 -49.77,-216.08 -48.46,41.54 3.8,23.78 -44.67,65.31 0,-78.61 -8.77,-132.24 17.79,-188.2 64.73,-136.39 239,-112.49 239,57.56 0,44.28 -40.31,91.45 -78.16,91.45 -75.59,0 -50.43,-45.04 -89.31,-78.38 -21.54,44.85 -3.59,89.26 31.85,119.5 152.12,129.74 295.63,-150.52 150.15,-306.3 -121.53,-130.11 -338.3,-13.28 -338.3,212.92z"/>
     <path class="fil9" d="M3090.99 3280.56c-3.8,26.04 -113.06,65.71 -135.68,76.37 -414.04,195.13 -679.31,112.24 -1070.12,-63.31 166.56,130.48 379.28,248.19 591.74,248.19 179.12,0 350.9,-68.29 510,-160.95 16.79,-9.77 119.57,-82.16 117.09,-89.43l-13.03 -10.88z"/>
     <path class="fil10" d="M1740.06 1151.28c74.26,0 66.99,-44.17 66.99,-91.45 0,-43.44 -20.05,-38.26 -55.82,-39.19 35.65,-74.24 131.86,5.88 111.64,117.57 -16.72,6.93 9.05,9.58 -25.57,-8.43 -1.48,-0.77 -5.14,-3.46 -7.93,-4.65 -8.6,43.17 -22.94,63.44 -45.4,90.57l-77.42 79.6c-6.63,15.98 -18.65,-6.23 0.33,15.97 25.23,29.52 116.26,-36.83 135.55,-53.29 23.85,-20.35 46.54,-38.23 60.99,-72.36 96.13,-227 -155.56,-374.55 -220.52,-178.54 -12.79,38.59 -10.63,84.52 22.98,118.79 0.09,0.09 33.45,25.41 34.18,25.41z"/>
     <path class="fil11" d="M3135.65 1739.11c0,84.55 -5.57,155.26 66.08,223.13 54.74,51.84 63.31,38.14 157.22,38.14l0 -26.13c-57.54,0 -88.58,-8.3 -116.45,-46.61 -166.96,-229.43 129.4,-425.05 149.94,-515.09 -78.87,44.28 -80.77,35.8 -159.2,127.24 -35.3,41.17 -97.58,125.93 -97.58,199.33z"/>
     <path class="fil12" d="M1784.71 1817.48c0,158.58 -133.03,167.96 -167.46,195.95 64.19,6.26 98.41,48.98 181.93,-61.46 117.77,-155.74 -25.27,-461.48 -215.42,-513.32 34.29,59.93 87.05,97.76 123.01,156.53 14.46,23.67 40.67,66.64 52.41,95.44 9.98,24.52 25.54,97.14 25.54,126.86z"/>
     <path class="fil13" d="M1516.76 1804.43c0,105.43 69.04,192.44 186.16,139.44 37.46,-16.96 36.09,-19.78 37.13,-74.14 -36.35,22.51 -167.47,117.72 -167.47,-65.31 54.36,23.02 -3.74,-0.8 33.43,27.68 52.78,40.43 89.38,13.65 89.38,-79.94 0,-62.98 -35.13,-11.49 -55.82,-78.38 -32.94,20.4 -122.81,80.29 -122.81,130.64z"/>
     <path class="fil14" d="M3269.63 1752.17c69.44,153.55 89.91,43.39 145.15,26.12 -1.32,68.61 -11.46,49.88 -22.34,104.52 -64.15,0 -65.92,25.13 -119.93,-2.48l-49.4 -12.76c0.69,2.65 57.9,80.56 124.68,80.56 147.1,0 143.37,-274.33 0,-274.33 -46.72,0 -62.41,43.57 -78.16,78.38z"/>
     <path class="fil15" d="M1483.27 2248.57c0,156.44 65.43,224.96 145.13,287.4 -13.12,-65.93 -48.58,-84.38 -62.89,-161.54 -11.09,-59.79 14.49,-204.23 -37.59,-204.23 -34.33,0 -44.65,38.28 -44.65,78.38z"/>
     <path class="fil16" d="M3358.95 2522.89c58.81,-46.07 84.72,-75.62 115.83,-151.85 19.41,-47.57 56.97,-213.91 -15.35,-213.91 -58.35,0 -24.46,118.57 -37.74,190.96 -2.87,15.69 -19.96,74.22 -25.74,87.45 -24.49,56.04 -32.23,20.35 -37,87.34z"/>
     <path class="fil17" d="M2409.94 681c0,55.5 49.81,42.31 66.99,117.57 48.3,-15.09 18.28,-5.66 48.32,-47.98 49.39,-69.56 61.85,-47.01 5.38,-119.36 -33.39,-42.77 -8.87,-26.98 -53.7,-54.74 -9.73,42.61 -5.05,25.49 -30.35,55.93 -10.22,12.3 -36.63,35.3 -36.63,48.58z"/>
     <path class="fil18" d="M1516.76 1556.23c0,70.97 25.86,-10.86 189.8,117.57 -8.99,-126.43 -189.8,-212.1 -189.8,-117.57z"/>
     <path class="fil19" d="M3269.63 1647.67c45.15,-14.12 57.3,-48.44 93.53,-60.39 71.09,-23.42 65.21,29.66 107.43,-44.11 -31.44,-54.94 -61.12,-60.68 -116.77,-19.15 -41.34,30.84 -72.37,64.23 -84.2,123.65z"/>
     <path class="fil20" d="M3135.65 2300.83c53.05,0 27.67,-100.01 11.17,-182.88 -38.87,12.14 -47.05,16.76 -41.07,72.17 4.01,37.03 4.1,110.7 29.91,110.7z"/>
     <path class="fil21" d="M1829.37 2248.57l0 65.33 44.67 0 13.21 -130.3c2.32,-37.56 -23.24,-45.26 -46.71,-52.6 -1.12,59.08 -11.17,51.92 -11.17,117.57z"/>
     <path class="fil22" d="M2532.76 3006.24c8.45,-17.61 6.1,-14.44 11.17,-39.19l-33.5 0c7.32,35.81 -4.54,20.35 22.33,39.19z"/>
     <path class="fil23" d="M2047.63 3184.78l49.53 30.21 -8.83 19.82 -28.04 -17.1 -7.92 17.77 24.3 14.82 -8.83 19.82 -24.3 -14.82 -9.5 21.32 28.97 17.67 -8.83 19.82 -50.46 -30.78 43.9 -98.55zm79.22 120.75c4.82,12.8 11.09,20.59 18.81,23.36 3.36,1.2 6.43,1.15 9.21,-0.16 2.78,-1.31 4.59,-3.59 5.44,-6.83 0.67,-2.55 0.23,-5.07 -1.32,-7.56 -1.37,-1.79 -4.39,-4.64 -9.06,-8.57 -4.67,-3.93 -7.91,-6.87 -9.74,-8.82 -1.83,-1.95 -4.16,-5.52 -6.97,-10.72 -2.82,-5.2 -3.06,-12.28 -0.71,-21.22 2.63,-10.02 7.94,-17.14 15.94,-21.36 8,-4.22 16.82,-4.6 26.48,-1.13 5.37,1.93 9.96,4.59 13.75,8 3.79,3.41 7.2,7.91 10.24,13.51l-14.33 16.3c-4.6,-8.74 -9.58,-14.08 -14.95,-16.01 -2.77,-0.99 -5.29,-0.95 -7.54,0.11 -2.26,1.07 -3.74,2.93 -4.43,5.59 -0.67,2.55 -0.54,4.7 0.39,6.43 0.92,1.73 1.95,3.15 3.09,4.25 1.13,1.11 4.17,3.7 9.12,7.79 4.94,4.09 8.77,8.33 11.47,12.75 4.18,7.52 5.01,16.09 2.48,25.72 -2.83,10.81 -8.29,18.47 -16.36,22.98 -8.07,4.52 -17.15,4.97 -27.23,1.35 -12.67,-4.55 -21.86,-13.65 -27.56,-27.31l13.79 -18.43zm117.95 -39.7l65.51 11.65 -3.25 24.99 -20.7 -3.69 -11.03 84.88 -23.96 -4.26 11.02 -84.88 -20.83 -3.71 3.24 -24.99zm121.99 102.74c3.59,0.34 6.55,2.11 8.88,5.33 2.34,3.21 3.35,6.97 3.06,11.27 -0.3,4.3 -1.82,7.81 -4.56,10.55 -2.75,2.73 -5.91,3.92 -9.5,3.58 -3.59,-0.34 -6.55,-2.11 -8.88,-5.32 -2.34,-3.21 -3.35,-6.97 -3.06,-11.27 0.29,-4.2 1.79,-7.69 4.49,-10.48 2.7,-2.78 5.9,-4 9.57,-3.65zm147.05 -81.4c10.27,-0.41 18.75,2.59 25.44,9.02 6.69,6.41 10.19,14.96 10.5,25.64 0.23,8.01 -1.07,14.44 -3.92,19.28 -2.84,4.84 -4.71,7.87 -5.6,9.09 -0.89,1.22 -1.73,2.3 -2.54,3.26 -0.81,0.96 -1.94,2.16 -3.39,3.61 -1.45,1.44 -2.98,3.02 -4.61,4.73l-16.13 16.52 37.78 -1.81 0.66 22.65 -71.62 2.85 -0.5 -17.26 29.31 -31.85c1.61,-1.92 3.04,-3.62 4.22,-5.11 1.19,-1.48 2.84,-3.63 4.91,-6.44 2.09,-2.81 3.74,-5.73 4.98,-8.76 1.25,-3.03 1.83,-5.88 1.75,-8.56 -0.11,-3.69 -1.3,-6.68 -3.56,-8.96 -2.26,-2.28 -5.02,-3.35 -8.26,-3.22 -3.51,0.14 -6.26,1.56 -8.25,4.26 -1.99,2.7 -2.92,6.21 -2.8,10.52l0.08 2.62 -23.96 0.95c-0.39,-13.15 2.61,-23.5 8.98,-31.05 6.37,-7.56 15.22,-11.56 26.54,-12.01zm129.91 -10.73c11.43,-1.53 21.29,2.56 29.57,12.23 8.28,9.7 13.26,23.05 14.92,40.07 1.65,16.92 -0.62,31.22 -6.81,42.91 -6.2,11.66 -15.01,18.27 -26.44,19.8 -11.34,1.52 -21.16,-2.6 -29.45,-12.33 -8.29,-9.75 -13.26,-23.07 -14.91,-40 -1.67,-17.02 0.58,-31.34 6.74,-42.97 6.16,-11.61 14.96,-18.19 26.39,-19.72zm-9.17 59.48c0.92,9.37 2.97,16.59 6.17,21.7 3.19,5.07 7.1,7.32 11.72,6.7 4.54,-0.61 7.85,-3.79 9.94,-9.53 2.09,-5.76 2.68,-13.36 1.75,-22.83 -0.92,-9.37 -2.97,-16.59 -6.17,-21.69 -3.19,-5.08 -7.06,-7.33 -11.59,-6.72 -4.54,0.61 -7.87,3.82 -10,9.61 -2.13,5.82 -2.74,13.4 -1.82,22.76zm131.16 -88.59c9.93,-3.12 18.76,-2.44 26.52,2.04 7.76,4.48 12.82,11.88 15.19,22.2 1.78,7.74 1.75,14.35 -0.09,19.82 -1.84,5.47 -3.07,8.92 -3.7,10.34 -0.63,1.42 -1.24,2.7 -1.85,3.85 -0.6,1.15 -1.47,2.61 -2.6,4.41 -1.13,1.79 -2.33,3.73 -3.57,5.83l-12.51 20.37 36.44 -11.77 5.02 21.88 -69.22 21.74 -3.83 -16.67 22.38 -38.79c1.2,-2.29 2.26,-4.33 3.13,-6.09 0.87,-1.76 2.06,-4.29 3.54,-7.57 1.5,-3.29 2.54,-6.57 3.15,-9.85 0.63,-3.28 0.64,-6.21 0.05,-8.8 -0.82,-3.57 -2.56,-6.17 -5.2,-7.78 -2.65,-1.61 -5.54,-1.93 -8.67,-0.94 -3.39,1.07 -5.8,3.18 -7.21,6.33 -1.41,3.16 -1.64,6.82 -0.69,10.99l0.58 2.53 -23.15 7.28c-2.91,-12.7 -2,-23.58 2.74,-32.62 4.75,-9.05 12.59,-15.29 23.53,-18.72zm130.23 29.34c1.83,4.55 4.26,7.53 7.25,8.94 3,1.41 6.25,1.15 9.74,-0.78 3.41,-1.89 5.71,-4.67 6.91,-8.33 1.19,-3.67 1.03,-7.37 -0.47,-11.08 -1.43,-3.53 -3.65,-5.77 -6.65,-6.72 -3.01,-0.95 -6.26,-0.46 -9.75,1.47l-3.22 1.78 -7.6 -18.81 2.61 -1.11c3.1,-1.71 5.2,-4.15 6.3,-7.31 1.1,-3.17 1.01,-6.33 -0.27,-9.49 -1.16,-2.88 -3.08,-4.8 -5.75,-5.76 -2.67,-0.96 -5.44,-0.66 -8.3,0.92 -2.86,1.58 -4.77,3.94 -5.73,7.09 -0.96,3.15 -0.71,6.53 0.75,10.15l-19.77 10.94c-3.91,-9.66 -4.09,-18.96 -0.57,-27.91 3.53,-8.94 9.9,-15.96 19.11,-21.05 8.57,-4.74 16.57,-6.1 24,-4.07 7.43,2.03 12.78,7.09 16.04,15.17 1.58,3.91 2.3,7.87 2.19,11.92 -0.11,4.04 -0.73,7.2 -1.86,9.47 -1.12,2.27 -2.02,3.88 -2.71,4.82 -0.68,0.95 -1.67,2 -2.94,3.17 1.62,-0.56 3.01,-0.9 4.17,-1.03 1.16,-0.13 4.15,0.01 8.98,0.41 4.82,0.4 9.15,5.34 12.98,14.81 3.83,9.47 3.87,19.06 0.11,28.76 -3.76,9.69 -10.4,17.18 -19.93,22.44 -10.4,5.76 -19.74,7.22 -28.02,4.41 -8.28,-2.81 -14.7,-9.88 -19.28,-21.21l21.68 -11.99z"/>
    </g>
   </g>
  </g>
 </g>
</svg>
