<?xml version="1.0" encoding="UTF-8"?>
<!DOCTYPE svg PUBLIC "-//W3C//DTD SVG 1.1//EN" "http://www.w3.org/Graphics/SVG/1.1/DTD/svg11.dtd">
<!-- Creator: CorelDRAW 2020 (64-Bit) -->
<svg xmlns="http://www.w3.org/2000/svg" xml:space="preserve" width="100.809mm" height="59.3163mm" version="1.1" style="shape-rendering:geometricPrecision; text-rendering:geometricPrecision; image-rendering:optimizeQuality; fill-rule:evenodd; clip-rule:evenodd"
viewBox="0 0 10080.86 5931.59"
 xmlns:xlink="http://www.w3.org/1999/xlink"
 xmlns:xodm="http://www.corel.com/coreldraw/odm/2003">
 <defs>
  <style type="text/css">
   <![CDATA[
    .fil21 {fill:black}
    .fil3 {fill:#87C4E7}
    .fil0 {fill:#6699FF;fill-rule:nonzero}
    .fil17 {fill:url(#id0)}
    .fil20 {fill:url(#id1)}
    .fil4 {fill:url(#id2)}
    .fil5 {fill:url(#id3)}
    .fil8 {fill:url(#id4)}
    .fil18 {fill:url(#id5)}
    .fil9 {fill:url(#id6)}
    .fil6 {fill:url(#id7)}
    .fil14 {fill:url(#id8)}
    .fil1 {fill:url(#id9)}
    .fil7 {fill:url(#id10)}
    .fil19 {fill:url(#id11)}
    .fil15 {fill:url(#id12)}
    .fil13 {fill:url(#id13)}
    .fil10 {fill:url(#id14)}
    .fil11 {fill:url(#id15)}
    .fil12 {fill:url(#id16)}
    .fil16 {fill:url(#id17)}
    .fil2 {fill:url(#id18)}
    .fil22 {fill:url(#id19);fill-rule:nonzero}
   ]]>
  </style>
  <linearGradient id="id0" gradientUnits="userSpaceOnUse" x1="3586.52" y1="1333.52" x2="3620.05" y2="1514.97">
   <stop offset="0" style="stop-opacity:1; stop-color:#87C4E7"/>
   <stop offset="1" style="stop-opacity:1; stop-color:blue"/>
  </linearGradient>
  <linearGradient id="id1" gradientUnits="userSpaceOnUse" xlink:href="#id0" x1="3951.47" y1="2221.41" x2="4053.66" y2="2367.39">
  </linearGradient>
  <linearGradient id="id2" gradientUnits="userSpaceOnUse" xlink:href="#id0" x1="7099" y1="2899.12" x2="7295.98" y2="3738.44">
  </linearGradient>
  <linearGradient id="id3" gradientUnits="userSpaceOnUse" xlink:href="#id0" x1="2769.28" y1="2917.04" x2="2973.1" y2="3761.82">
  </linearGradient>
  <linearGradient id="id4" gradientUnits="userSpaceOnUse" xlink:href="#id0" x1="5022.68" y1="3790.87" x2="5037.44" y2="4100.9">
  </linearGradient>
  <linearGradient id="id5" gradientUnits="userSpaceOnUse" xlink:href="#id0" x1="6432.98" y1="1304.92" x2="6462.09" y2="1479.48">
  </linearGradient>
  <linearGradient id="id6" gradientUnits="userSpaceOnUse" xlink:href="#id0" x1="3832.17" y1="577.07" x2="3984.62" y2="1001.63">
  </linearGradient>
  <linearGradient id="id7" gradientUnits="userSpaceOnUse" xlink:href="#id0" x1="6028.89" y1="2127.62" x2="6234.72" y2="2751.25">
  </linearGradient>
  <linearGradient id="id8" gradientUnits="userSpaceOnUse" xlink:href="#id0" x1="3420.32" y1="2328.35" x2="3605.76" y2="2659.53">
  </linearGradient>
  <linearGradient id="id9" gradientUnits="userSpaceOnUse" xlink:href="#id0" x1="4984.26" y1="2745.93" x2="5072.2" y2="3795.01">
  </linearGradient>
  <linearGradient id="id10" gradientUnits="userSpaceOnUse" xlink:href="#id0" x1="3819.46" y1="2140.72" x2="4013.54" y2="2754.42">
  </linearGradient>
  <linearGradient id="id11" gradientUnits="userSpaceOnUse" xlink:href="#id0" x1="6019.38" y1="2199.1" x2="6118.05" y2="2353.59">
  </linearGradient>
  <linearGradient id="id12" gradientUnits="userSpaceOnUse" xlink:href="#id0" x1="6451.83" y1="2311.46" x2="6638.66" y2="2640.29">
  </linearGradient>
  <linearGradient id="id13" gradientUnits="userSpaceOnUse" xlink:href="#id0" x1="6358.82" y1="1582.29" x2="6438.5" y2="1887.75">
  </linearGradient>
  <linearGradient id="id14" gradientUnits="userSpaceOnUse" xlink:href="#id0" x1="6133.96" y1="1346.15" x2="6417.66" y2="1902.59">
  </linearGradient>
  <linearGradient id="id15" gradientUnits="userSpaceOnUse" xlink:href="#id0" x1="3625.98" y1="1380.98" x2="3907.76" y2="1937.81">
  </linearGradient>
  <linearGradient id="id16" gradientUnits="userSpaceOnUse" xlink:href="#id0" x1="3585.54" y1="1587" x2="3675.12" y2="1901.74">
  </linearGradient>
  <linearGradient id="id17" gradientUnits="userSpaceOnUse" xlink:href="#id0" x1="4985.63" y1="56.2" x2="5066.21" y2="547.45">
  </linearGradient>
  <linearGradient id="id18" gradientUnits="userSpaceOnUse" x1="4079.47" y1="1046.21" x2="8127.46" y2="1044.87">
   <stop offset="0" style="stop-opacity:1; stop-color:#0A7DBF"/>
   <stop offset="0.180392" style="stop-opacity:1; stop-color:#AACAFA"/>
   <stop offset="0.341176" style="stop-opacity:1; stop-color:#3250BA"/>
   <stop offset="0.521569" style="stop-opacity:1; stop-color:#87C4E7"/>
   <stop offset="1" style="stop-opacity:1; stop-color:blue"/>
  </linearGradient>
  <linearGradient id="id19" gradientUnits="userSpaceOnUse" xlink:href="#id0" x1="4990.5" y1="3649.62" x2="5003.72" y2="3907.3">
  </linearGradient>
 </defs>
 <g id="Layer_x0020_1">
  <metadata id="CorelCorpID_0Corel-Layer"/>
  <g id="_2352236598192">
   <path class="fil0" d="M217.66 4883.23l0 164.79c0,31.43 1.91,51.4 5.88,59.48 3.82,8.23 10.72,14.69 20.41,19.54 9.84,4.84 28.05,7.34 54.78,7.34l0 14.98 -298.73 0 0 -14.98c27.03,0 45.39,-2.5 54.93,-7.49 9.7,-4.99 16.45,-11.6 20.27,-19.53 3.97,-8.08 5.87,-27.91 5.87,-59.34l0 -381.56c0,-31.58 -1.9,-51.41 -5.87,-59.48 -3.82,-8.23 -10.72,-14.69 -20.42,-19.54 -9.84,-4.84 -28.05,-7.34 -54.78,-7.34l0 -14.98 271.42 0c70.64,0 122.19,4.84 154.94,14.68 32.75,9.7 59.48,27.76 80.19,54.2 20.71,26.29 30.99,57.13 30.99,92.53 0,43.03 -15.57,78.72 -46.56,106.92 -19.82,17.91 -47.58,31.28 -83.27,40.09l139.97 197.83c18.5,25.41 31.72,41.27 39.5,47.59 11.75,8.81 25.56,13.66 41.13,14.54l0 15.86 -183.88 0 -188.44 -266.13 -38.33 0zm0 -285.51l0 254.67 24.53 0c39.95,0 69.91,-3.67 89.74,-10.87 19.82,-7.34 35.39,-20.56 46.7,-39.5 11.31,-18.95 17.04,-43.77 17.04,-74.32 0,-44.35 -10.43,-77.1 -31.29,-98.25 -20.85,-21.15 -54.34,-31.73 -100.6,-31.73l-46.12 0z"/>
   <path id="1" class="fil0" d="M1079.33 5134.38l0 14.98 -304.02 0 0 -14.98 19.24 0c16.89,0 30.55,-3.08 40.83,-9.11 7.49,-4.11 13.22,-11.01 17.19,-20.85 3.08,-6.9 4.7,-25.12 4.7,-54.64l0 -385.09c0,-30.1 -1.62,-48.9 -4.7,-56.39 -3.23,-7.49 -9.55,-14.1 -19.1,-19.68 -9.54,-5.73 -22.47,-8.52 -38.92,-8.52l-19.24 0 0 -14.98 304.02 0 0 14.98 -19.24 0c-16.74,0 -30.25,3.08 -40.53,9.1 -7.35,4.12 -13.22,11.02 -17.48,20.86 -3.09,6.9 -4.7,25.11 -4.7,54.63l0 385.09c0,30.11 1.61,48.91 4.85,56.4 3.37,7.49 9.69,14.1 19.24,19.68 9.54,5.73 22.47,8.52 38.62,8.52l19.24 0z"/>
   <path id="2" class="fil0" d="M1652.86 4551.9l4.4 194.75 -17.62 0c-8.37,-48.76 -28.79,-87.98 -61.39,-117.64 -32.75,-29.67 -68,-44.51 -105.89,-44.51 -29.38,0 -52.58,7.79 -69.62,23.5 -17.18,15.57 -25.7,33.64 -25.7,53.9 0,12.93 3.08,24.38 9.11,34.52 8.22,13.36 21.59,26.73 40.09,39.95 13.51,9.4 44.65,26.29 93.41,50.37 68.44,33.49 114.56,65.21 138.35,95.03 23.64,29.81 35.39,63.88 35.39,102.36 0,48.76 -19.09,90.62 -57.13,125.72 -38.04,35.1 -86.36,52.73 -144.96,52.73 -18.36,0 -35.83,-1.91 -52.13,-5.58 -16.45,-3.67 -37.02,-10.72 -61.69,-21.15 -13.81,-5.73 -25.11,-8.52 -34.07,-8.52 -7.49,0 -15.28,2.94 -23.65,8.66 -8.37,5.88 -15.13,14.69 -20.27,26.59l-14.98 0 0 -220.3 14.98 0c12.63,61.83 37.01,109.12 73,141.58 36.13,32.45 74.9,48.76 116.61,48.76 32.16,0 57.87,-8.82 76.96,-26.29 19.09,-17.48 28.64,-37.75 28.64,-61.1 0,-13.66 -3.67,-27.02 -11.02,-39.95 -7.34,-12.92 -18.35,-25.11 -33.34,-36.86 -14.98,-11.6 -41.41,-26.73 -79.3,-45.38 -53.17,-26 -91.36,-48.32 -114.56,-66.68 -23.06,-18.36 -40.83,-38.92 -53.31,-61.54 -12.49,-22.76 -18.66,-47.73 -18.66,-74.9 0,-46.56 17.04,-86.21 51.26,-118.97 34.07,-32.75 77.11,-49.05 129.1,-49.05 18.94,0 37.3,2.2 55.07,6.76 13.51,3.52 29.96,9.84 49.35,19.09 19.39,9.25 32.9,13.8 40.68,13.8 7.49,0 13.37,-2.2 17.63,-6.75 4.26,-4.55 8.37,-15.57 12.04,-32.9l13.22 0z"/>
   <path id="3" class="fil0" d="M2106.54 4598.6l0 237.93 11.6 0c37.16,0 64.04,-11.6 80.78,-34.81 16.6,-23.2 27.32,-57.42 31.87,-102.66l16.74 0 0 305.78 -16.74 0c-3.38,-33.34 -10.72,-60.66 -21.74,-81.8 -11.16,-21.3 -23.94,-35.55 -38.62,-42.89 -14.69,-7.34 -35.99,-11.01 -63.89,-11.01l0 164.19c0,32.17 1.32,51.7 4.11,58.9 2.65,7.19 7.79,13.07 15.28,17.62 7.49,4.56 19.53,6.91 36.13,6.91l34.95 0c54.49,0 98.25,-12.64 131.15,-37.75 32.9,-25.11 56.55,-63.45 70.79,-115.14l16.01 0 -26.29 185.49 -504.2 0 0 -14.98 19.24 0c16.89,0 30.55,-3.08 40.83,-9.11 7.49,-4.11 13.22,-11.01 17.19,-20.85 3.08,-6.9 4.7,-25.12 4.7,-54.64l0 -385.09c0,-26.58 -0.74,-42.88 -2.21,-49.05 -2.79,-10.13 -8.07,-17.92 -15.86,-23.35 -10.87,-8.08 -25.7,-12.19 -44.65,-12.19l-19.24 0 0 -14.98 488.19 0 0 172.71 -16.74 0c-8.22,-42.29 -19.97,-72.55 -34.95,-90.91 -14.98,-18.36 -36.13,-31.87 -63.6,-40.53 -16.01,-5.14 -45.97,-7.79 -90.03,-7.79l-60.8 0z"/>
   <path id="4" class="fil0" d="M3273.84 4868.25l0 181.53c0,30.11 1.62,48.91 4.85,56.4 3.37,7.49 9.69,14.1 19.24,19.68 9.54,5.73 22.47,8.52 38.62,8.52l19.24 0 0 14.98 -304.01 0 0 -14.98 19.24 0c16.89,0 30.54,-3.08 40.82,-9.11 7.49,-4.11 13.22,-11.01 17.19,-20.85 3.08,-6.9 4.7,-25.12 4.7,-54.64l0 -385.09c0,-30.1 -1.62,-48.9 -4.7,-56.39 -3.23,-7.49 -9.55,-14.1 -19.09,-19.68 -9.55,-5.73 -22.48,-8.52 -38.92,-8.52l-19.24 0 0 -14.98 304.01 0 0 14.98 -19.24 0c-16.74,0 -30.25,3.08 -40.53,9.1 -7.35,4.12 -13.22,11.02 -17.48,20.86 -3.08,6.9 -4.7,25.11 -4.7,54.63l0 165.67 207.08 0 0 -165.67c0,-30.1 -1.61,-48.9 -4.7,-56.39 -3.23,-7.49 -9.54,-14.1 -19.38,-19.68 -9.7,-5.73 -22.62,-8.52 -38.92,-8.52l-18.95 0 0 -14.98 304.02 0 0 14.98 -18.95 0c-17.03,0 -30.69,3.08 -40.68,9.1 -7.49,4.12 -13.36,11.02 -17.62,20.86 -3.09,6.9 -4.7,25.11 -4.7,54.63l0 385.09c0,30.11 1.61,48.91 4.7,56.4 3.23,7.49 9.54,14.1 19.38,19.68 9.7,5.73 22.62,8.52 38.92,8.52l18.95 0 0 14.98 -304.02 0 0 -14.98 18.95 0c17.03,0 30.69,-3.08 40.68,-9.11 7.49,-4.11 13.37,-11.01 17.62,-20.85 3.09,-6.9 4.7,-25.12 4.7,-54.64l0 -181.53 -207.08 0z"/>
   <path id="5" class="fil0" d="M4178.4 5134.38l0 14.98 -304.02 0 0 -14.98 19.24 0c16.89,0 30.55,-3.08 40.83,-9.11 7.49,-4.11 13.22,-11.01 17.19,-20.85 3.08,-6.9 4.7,-25.12 4.7,-54.64l0 -385.09c0,-30.1 -1.62,-48.9 -4.7,-56.39 -3.23,-7.49 -9.55,-14.1 -19.1,-19.68 -9.54,-5.73 -22.47,-8.52 -38.92,-8.52l-19.24 0 0 -14.98 304.02 0 0 14.98 -19.24 0c-16.74,0 -30.25,3.08 -40.53,9.1 -7.35,4.12 -13.22,11.02 -17.48,20.86 -3.09,6.9 -4.7,25.11 -4.7,54.63l0 385.09c0,30.11 1.61,48.91 4.85,56.4 3.37,7.49 9.69,14.1 19.24,19.68 9.54,5.73 22.47,8.52 38.62,8.52l19.24 0z"/>
   <path id="6" class="fil0" d="M4945.78 4551.9l0 205.32 -14.98 0c-19.24,-55.81 -48.17,-98.25 -86.65,-127.33 -38.48,-29.08 -80.63,-43.62 -126.3,-43.62 -43.77,0 -80.05,12.19 -109.13,36.71 -29.08,24.53 -49.64,58.75 -61.68,102.52 -12.05,43.91 -18.07,88.85 -18.07,134.97 0,55.96 6.46,104.86 19.68,147.02 13.22,42.15 34.52,72.99 63.89,92.82 29.37,19.82 64.18,29.66 104.57,29.66 14.1,0 28.49,-1.47 43.18,-4.55 14.83,-2.94 29.96,-7.34 45.38,-13.07l0 -120.73c0,-23.35 -1.61,-38.48 -4.7,-45.38 -3.08,-6.75 -9.69,-13.07 -19.53,-18.5 -9.84,-5.59 -21.74,-8.38 -35.69,-8.38l-14.98 0 0 -14.98 283.75 0 0 14.98c-21.59,1.47 -36.72,4.41 -45.24,8.96 -8.37,4.56 -14.98,12.05 -19.53,22.62 -2.64,5.44 -3.97,19.09 -3.97,40.68l0 120.73c-37.3,16.6 -76.07,29.08 -116.31,37.6 -40.25,8.37 -82.1,12.63 -125.43,12.63 -55.22,0 -101.19,-7.49 -137.76,-22.62 -36.57,-14.98 -68.88,-34.81 -96.79,-59.33 -27.9,-24.53 -49.79,-52.14 -65.5,-82.84 -20.12,-39.51 -30.11,-83.86 -30.11,-132.77 0,-87.82 30.84,-161.85 92.53,-222.36 61.83,-60.51 139.52,-90.76 233.08,-90.76 29.08,0 55.07,2.2 78.42,6.76 12.64,2.35 33.05,8.81 61.4,19.53 28.19,10.72 44.94,16.01 50.08,16.01 8.08,0 15.57,-2.94 22.47,-8.81 6.9,-5.88 13.22,-17.04 18.94,-33.49l14.98 0z"/>
   <path id="7" class="fil0" d="M5401.81 4868.25l0 181.53c0,30.11 1.62,48.91 4.85,56.4 3.37,7.49 9.69,14.1 19.24,19.68 9.54,5.73 22.47,8.52 38.62,8.52l19.24 0 0 14.98 -304.01 0 0 -14.98 19.24 0c16.89,0 30.54,-3.08 40.82,-9.11 7.49,-4.11 13.22,-11.01 17.19,-20.85 3.08,-6.9 4.7,-25.12 4.7,-54.64l0 -385.09c0,-30.1 -1.62,-48.9 -4.7,-56.39 -3.23,-7.49 -9.55,-14.1 -19.09,-19.68 -9.55,-5.73 -22.48,-8.52 -38.92,-8.52l-19.24 0 0 -14.98 304.01 0 0 14.98 -19.24 0c-16.74,0 -30.25,3.08 -40.53,9.1 -7.35,4.12 -13.22,11.02 -17.48,20.86 -3.08,6.9 -4.7,25.11 -4.7,54.63l0 165.67 207.08 0 0 -165.67c0,-30.1 -1.61,-48.9 -4.7,-56.39 -3.23,-7.49 -9.54,-14.1 -19.38,-19.68 -9.7,-5.73 -22.62,-8.52 -38.92,-8.52l-18.95 0 0 -14.98 304.02 0 0 14.98 -18.95 0c-17.03,0 -30.69,3.08 -40.68,9.1 -7.49,4.12 -13.36,11.02 -17.62,20.86 -3.09,6.9 -4.7,25.11 -4.7,54.63l0 385.09c0,30.11 1.61,48.91 4.7,56.4 3.23,7.49 9.54,14.1 19.38,19.68 9.7,5.73 22.62,8.52 38.92,8.52l18.95 0 0 14.98 -304.02 0 0 -14.98 18.95 0c17.03,0 30.69,-3.08 40.68,-9.11 7.49,-4.11 13.37,-11.01 17.62,-20.85 3.09,-6.9 4.7,-25.12 4.7,-54.64l0 -181.53 -207.08 0z"/>
   <path id="8" class="fil0" d="M6665.89 4868.25l0 181.53c0,30.11 1.62,48.91 4.85,56.4 3.37,7.49 9.69,14.1 19.24,19.68 9.54,5.73 22.47,8.52 38.62,8.52l19.24 0 0 14.98 -304.01 0 0 -14.98 19.24 0c16.89,0 30.54,-3.08 40.82,-9.11 7.49,-4.11 13.22,-11.01 17.19,-20.85 3.08,-6.9 4.7,-25.12 4.7,-54.64l0 -385.09c0,-30.1 -1.62,-48.9 -4.7,-56.39 -3.23,-7.49 -9.55,-14.1 -19.09,-19.68 -9.55,-5.73 -22.48,-8.52 -38.92,-8.52l-19.24 0 0 -14.98 304.01 0 0 14.98 -19.24 0c-16.74,0 -30.25,3.08 -40.53,9.1 -7.35,4.12 -13.22,11.02 -17.48,20.86 -3.08,6.9 -4.7,25.11 -4.7,54.63l0 165.67 207.08 0 0 -165.67c0,-30.1 -1.61,-48.9 -4.7,-56.39 -3.23,-7.49 -9.54,-14.1 -19.38,-19.68 -9.7,-5.73 -22.62,-8.52 -38.92,-8.52l-18.95 0 0 -14.98 304.02 0 0 14.98 -18.95 0c-17.03,0 -30.69,3.08 -40.68,9.1 -7.49,4.12 -13.36,11.02 -17.62,20.86 -3.09,6.9 -4.7,25.11 -4.7,54.63l0 385.09c0,30.11 1.61,48.91 4.7,56.4 3.23,7.49 9.54,14.1 19.38,19.68 9.7,5.73 22.62,8.52 38.92,8.52l18.95 0 0 14.98 -304.02 0 0 -14.98 18.95 0c17.03,0 30.69,-3.08 40.68,-9.11 7.49,-4.11 13.37,-11.01 17.62,-20.85 3.09,-6.9 4.7,-25.12 4.7,-54.64l0 -181.53 -207.08 0z"/>
   <path id="9" class="fil0" d="M7588.65 4558.07c92.97,-3.38 168.61,23.64 226.77,81.22 58.16,57.72 87.24,129.68 87.24,216.33 0,73.88 -21.74,138.94 -65.06,195.19 -57.43,74.46 -138.5,111.77 -243.37,111.77 -105.15,0 -186.37,-35.54 -243.8,-106.63 -45.38,-56.25 -68.14,-122.78 -68.14,-199.89 0,-86.65 29.52,-158.76 88.56,-216.48 59.04,-57.87 131.59,-84.89 217.8,-81.51zm5.14 27.32c-53.6,0 -94.29,27.17 -122.34,81.65 -22.76,44.65 -34.07,108.83 -34.07,192.55 0,99.43 17.62,173.01 52.72,220.6 24.53,33.19 58.75,49.78 102.81,49.78 29.67,0 54.49,-7.19 74.32,-21.44 25.26,-18.36 45.09,-47.73 59.19,-87.97 14.1,-40.25 21.14,-92.82 21.14,-157.45 0,-77.1 -7.19,-134.82 -21.58,-173.01 -14.4,-38.33 -32.76,-65.35 -55.08,-81.07 -22.32,-15.71 -48.03,-23.64 -77.11,-23.64z"/>
   <path id="10" class="fil0" d="M8628.33 4565.12l0 157.73 -14.98 0c-9.25,-36.42 -19.38,-62.56 -30.55,-78.42 -11.16,-16.01 -26.58,-28.64 -46.11,-38.04 -10.87,-5.14 -29.96,-7.79 -57.28,-7.79l-44.06 0 0 451.18c0,30.11 1.61,48.91 4.85,56.4 3.23,7.49 9.69,14.1 19.09,19.68 9.54,5.73 22.47,8.52 38.92,8.52l19.09 0 0 14.98 -304.02 0 0 -14.98 19.24 0c16.75,0 30.26,-3.08 40.54,-9.11 7.34,-4.11 13.22,-11.01 17.48,-20.85 3.08,-6.9 4.7,-25.12 4.7,-54.64l0 -451.18 -42.3 0c-39.07,0 -67.41,8.38 -85.19,24.97 -24.82,23.21 -40.38,56.25 -46.99,99.28l-16.75 0 0 -157.73 524.32 0z"/>
   <path id="11" class="fil0" d="M9037.81 4598.6l0 237.93 11.6 0c37.16,0 64.04,-11.6 80.78,-34.81 16.6,-23.2 27.32,-57.42 31.87,-102.66l16.74 0 0 305.78 -16.74 0c-3.38,-33.34 -10.72,-60.66 -21.74,-81.8 -11.16,-21.3 -23.94,-35.55 -38.62,-42.89 -14.69,-7.34 -35.99,-11.01 -63.89,-11.01l0 164.19c0,32.17 1.32,51.7 4.11,58.9 2.65,7.19 7.79,13.07 15.28,17.62 7.49,4.56 19.53,6.91 36.13,6.91l34.95 0c54.49,0 98.25,-12.64 131.15,-37.75 32.9,-25.11 56.55,-63.45 70.79,-115.14l16.01 0 -26.29 185.49 -504.2 0 0 -14.98 19.24 0c16.89,0 30.55,-3.08 40.83,-9.11 7.49,-4.11 13.22,-11.01 17.19,-20.85 3.08,-6.9 4.7,-25.12 4.7,-54.64l0 -385.09c0,-26.58 -0.74,-42.88 -2.21,-49.05 -2.79,-10.13 -8.07,-17.92 -15.86,-23.35 -10.87,-8.08 -25.7,-12.19 -44.65,-12.19l-19.24 0 0 -14.98 488.19 0 0 172.71 -16.74 0c-8.22,-42.29 -19.97,-72.55 -34.95,-90.91 -14.98,-18.36 -36.13,-31.87 -63.6,-40.53 -16.01,-5.14 -45.97,-7.79 -90.03,-7.79l-60.8 0z"/>
   <path id="12" class="fil0" d="M10080.86 4944.92l-22.03 204.44 -517.27 0 0 -14.98 19.24 0c16.89,0 30.55,-3.08 40.83,-9.11 7.49,-4.11 13.22,-11.01 17.19,-20.85 3.08,-6.9 4.7,-25.12 4.7,-54.64l0 -385.09c0,-30.1 -1.62,-48.9 -4.7,-56.39 -3.23,-7.49 -9.55,-14.1 -19.1,-19.68 -9.54,-5.73 -22.47,-8.52 -38.92,-8.52l-19.24 0 0 -14.98 311.07 0 0 14.98 -25.55 0c-16.89,0 -30.55,3.08 -40.98,9.1 -7.49,4.12 -13.37,11.02 -17.77,20.86 -3.09,6.9 -4.7,25.11 -4.7,54.63l0 372.76c0,29.81 1.76,48.9 5.14,57.13 3.38,8.22 10.13,14.24 20.12,18.36 7.2,2.49 24.53,3.82 51.84,3.82l48.47 0c30.84,0 56.55,-5.44 77.11,-16.31 20.56,-10.87 38.48,-28.05 53.46,-51.55 14.98,-23.5 29.22,-58.16 42.59,-103.98l18.5 0z"/>
   <path class="fil0" d="M1274.08 5914.9l0 -478.35 168.61 0c29.66,0 54.69,4.86 75.21,14.6 20.51,9.73 35.8,23.17 45.77,40.44 9.96,17.15 14.95,36.97 14.95,59.1 0,28.04 -7.77,51.68 -23.41,70.69 -15.64,19 -34.3,33.25 -55.74,42.64 -21.55,9.39 -42.3,15.06 -62.23,17.15l184.83 233.73c-13.56,-2.67 -27.23,-4.06 -40.79,-4.06 -13.56,0 -27.23,1.39 -40.79,4.06l-179.26 -228.17 -21.79 0 0 228.17c-10.89,-2.67 -21.79,-4.06 -32.68,-4.06 -10.89,0 -21.78,1.39 -32.68,4.06zm65.36 -255.28c5.91,0.46 14.25,0.69 25.15,0.69 42.76,0 75.32,-6.95 97.57,-20.74 22.25,-13.91 36.38,-28.85 42.29,-45.08 5.91,-16.22 8.81,-30.82 8.81,-43.8 0,-10.66 -3.13,-22.6 -9.39,-35.81 -6.14,-13.32 -17.73,-25.14 -34.76,-35.57 -16.92,-10.43 -40.21,-15.65 -69.88,-15.65l-59.79 0 0 195.96z"/>
   <path id="1" class="fil0" d="M1908.45 5914.9l0 -472.79 249.84 0c-2.78,8.23 -4.05,15.41 -4.05,21.79 0,6.37 1.27,13.67 4.05,21.9 -22.6,-4.52 -52.72,-6.84 -90.27,-6.84 -10.54,0 -26.54,0.23 -47.74,0.69 -21.21,0.47 -36.74,0.7 -46.47,0.7l0 168.26 103.13 0 65.01 -5.45c-2.66,5.45 -4.05,12.05 -4.05,19.7 0,7.76 1.39,15.64 4.05,23.87l-81.35 -5.44 -86.79 0 0 195.14c11.7,1.5 28.62,2.32 50.52,2.32 21.44,0 45.78,-0.82 72.78,-2.44 27,-1.5 49.25,-3.36 66.63,-5.33 -2.78,8.23 -4.06,16.22 -4.06,23.99 0,7.76 1.28,14.48 4.06,19.93l-255.29 0z"/>
   <path id="2" class="fil0" d="M2412.57 5914.9l217.39 -483.22 16.34 0 211.95 483.22c-2.32,0 -6.14,-0.12 -11.71,-0.46 -5.56,-0.35 -11.82,-0.81 -18.89,-1.28 -6.95,-0.46 -12.74,-0.69 -17.26,-0.69 -10.2,0 -19.59,0.81 -28.28,2.43l-76.01 -189.81 -168.49 0 -70.69 189.81c-4.98,-1.62 -10.89,-2.43 -17.61,-2.43 -3.02,0 -7.19,0.23 -12.75,0.69 -5.56,0.47 -10.43,0.93 -14.49,1.28 -4.05,0.34 -7.18,0.46 -9.5,0.46zm141.38 -222.49l141.25 0 -70.68 -168.6 -70.57 168.6z"/>
   <path id="3" class="fil0" d="M3139.17 5914.9l0 -478.35c8.12,2.78 18.78,4.17 31.99,4.17 13.09,0 22.36,-1.39 27.81,-4.17l0 439.76c11.82,1.62 28.62,2.44 50.52,2.44 21.56,0 45.77,-0.82 72.77,-2.44 27.12,-1.5 49.37,-3.36 66.75,-5.33 -1.62,4.98 -2.43,10.43 -2.43,16.11 0,2.32 0.35,5.91 0.92,11.01 0.58,4.98 0.93,8.69 1.16,11.01 0.24,2.2 0.35,4.17 0.35,5.79l-249.84 0z"/>
   <path id="4" class="fil0" d="M4223.38 5681.18c0,-32.33 6.02,-63.5 17.96,-93.4 12.05,-29.9 29.08,-56.09 51.33,-78.57 22.14,-22.36 49.14,-40.09 80.89,-53.07 31.86,-13.09 66.86,-19.58 105.1,-19.58 73.82,0 128.16,10.77 162.93,32.21l-16.23 54.35 -5.44 0c-14.95,-14.02 -29.9,-25.38 -44.73,-33.84 -14.95,-8.46 -30.48,-14.83 -46.47,-19.12 -16.11,-4.28 -32.21,-6.49 -48.55,-6.49 -32.8,0 -63.39,8.46 -91.78,25.38 -28.39,16.8 -51.1,41.14 -68.37,72.89 -17.15,31.75 -25.73,68.72 -25.73,110.78l0 8.23c0.93,38.47 6.61,71.38 16.92,98.38 10.43,27.12 24.57,49.48 42.42,66.98 17.84,17.61 37.77,30.36 59.67,38.47 22.02,8 44.96,12.05 68.95,12.05 27.12,0 53.77,-4.75 79.96,-14.13 26.3,-9.39 49.13,-22.25 68.6,-38.48l-5.45 43.46c-16.1,9.5 -32.91,17.61 -50.4,24.33 -17.62,6.72 -35.23,11.59 -52.96,14.84 -17.85,3.12 -34.88,4.75 -51.1,4.75 -32.8,0 -64.32,-5.8 -94.45,-17.5 -30.01,-11.71 -56.66,-28.62 -79.95,-50.99 -23.18,-22.25 -41.14,-48.78 -53.89,-79.49 -12.86,-30.71 -19.23,-64.78 -19.23,-102.44z"/>
   <path id="5" class="fil0" d="M4895.76 5675.85c0,-30.48 5.67,-60.72 17.15,-90.5 11.47,-29.9 28.15,-56.78 50.17,-80.66 22.14,-23.87 50.06,-42.99 83.78,-57.24 33.72,-14.25 72.08,-21.32 115.07,-21.32 49.95,1.39 92.01,9.5 126.08,24.56 34.07,15.07 60.49,34.54 79.38,58.29 19,23.76 32.44,49.14 40.67,76.37 8.11,27.11 12.98,55.5 14.6,85.17l0 9.5c0,37.08 -7.07,70.8 -20.97,101.05 -13.91,30.36 -33.26,56.43 -58.17,78.33 -24.92,21.79 -52.85,38.36 -83.67,49.72 -30.94,11.24 -63.27,16.91 -97.22,16.91 -1.86,0 -3.59,0 -5.33,-0.11 -1.63,-0.12 -3.83,-0.23 -6.26,-0.23 -29.2,0 -58.52,-4.52 -88.07,-13.79 -29.55,-9.16 -57.01,-23.64 -82.51,-43.57 -25.49,-19.94 -46,-45.89 -61.41,-78.11 -15.53,-32.1 -23.29,-70.22 -23.29,-114.37zm70.91 0.23c0,69.3 18.08,123.76 54.12,163.39 36.04,39.63 83.2,59.45 141.26,59.45 25.84,0 49.59,-4.98 71.61,-14.83 21.9,-9.85 41.37,-24.45 58.29,-43.92 17.03,-19.47 30.59,-42.99 40.67,-70.69 10.2,-27.58 16.69,-58.75 19.36,-93.4 0.23,-2.66 0.34,-6.72 0.34,-11.93 0,-29.44 -4.75,-57.13 -14.37,-83.21 -9.61,-26.07 -23.06,-48.55 -40.44,-67.55 -17.26,-19.01 -37.89,-33.84 -61.99,-44.39 -24.11,-10.54 -50.41,-15.76 -78.92,-15.76 -32.1,0 -59.79,6.84 -83.08,20.51 -23.3,13.79 -42.18,31.52 -56.79,53.54 -14.6,22.02 -25.84,45.66 -33.6,71.15 -7.76,25.5 -13.33,51.34 -16.46,77.64z"/>
   <path id="6" class="fil0" d="M5682.28 5914.9l65.24 -478.35 21.67 0 190.04 364.32 195.6 -364.32 21.67 0 54.35 478.35c-13.56,-2.67 -25.38,-4.06 -35.34,-4.06 -9.97,0 -21.67,1.39 -35.23,4.06l-32.68 -358.53 -179.15 347.64 -10.89 0 -173.82 -342.2 -32.56 353.09c-5.45,-2.67 -12.87,-4.06 -22.48,-4.06 -9.51,0 -18.31,1.39 -26.42,4.06z"/>
   <path id="7" class="fil0" d="M6539.47 5442.12l244.39 0c-2.66,8.11 -4.05,16.34 -4.05,24.45 0,8.23 1.39,16.34 4.05,24.57 -30.12,-5.45 -60.25,-9.51 -90.61,-12.29 -30.25,-2.66 -61.65,-4.05 -93.98,-4.05l0 168.26 103.13 0 70.57 -5.45c-2.66,8.23 -4.05,15.41 -4.05,21.78 0,6.38 1.39,13.56 4.05,21.79l-70.57 -5.45 -103.13 0 0 239.18c-8.11,-2.67 -17.38,-4.06 -27.81,-4.06 -10.43,0 -21.09,1.39 -31.99,4.06l0 -472.79z"/>
   <path id="8" class="fil0" d="M7065.15 5675.85c0,-30.48 5.67,-60.72 17.15,-90.5 11.47,-29.9 28.15,-56.78 50.17,-80.66 22.14,-23.87 50.06,-42.99 83.78,-57.24 33.72,-14.25 72.08,-21.32 115.07,-21.32 49.95,1.39 92.01,9.5 126.08,24.56 34.07,15.07 60.49,34.54 79.38,58.29 19,23.76 32.44,49.14 40.67,76.37 8.11,27.11 12.98,55.5 14.6,85.17l0 9.5c0,37.08 -7.07,70.8 -20.97,101.05 -13.91,30.36 -33.26,56.43 -58.17,78.33 -24.92,21.79 -52.85,38.36 -83.67,49.72 -30.94,11.24 -63.27,16.91 -97.22,16.91 -1.86,0 -3.59,0 -5.33,-0.11 -1.63,-0.12 -3.83,-0.23 -6.26,-0.23 -29.2,0 -58.52,-4.52 -88.07,-13.79 -29.55,-9.16 -57.01,-23.64 -82.51,-43.57 -25.49,-19.94 -46,-45.89 -61.41,-78.11 -15.53,-32.1 -23.29,-70.22 -23.29,-114.37zm70.91 0.23c0,69.3 18.08,123.76 54.12,163.39 36.04,39.63 83.2,59.45 141.26,59.45 25.84,0 49.59,-4.98 71.61,-14.83 21.9,-9.85 41.37,-24.45 58.29,-43.92 17.03,-19.47 30.59,-42.99 40.67,-70.69 10.2,-27.58 16.69,-58.75 19.36,-93.4 0.23,-2.66 0.34,-6.72 0.34,-11.93 0,-29.44 -4.75,-57.13 -14.37,-83.21 -9.61,-26.07 -23.06,-48.55 -40.44,-67.55 -17.26,-19.01 -37.89,-33.84 -61.99,-44.39 -24.11,-10.54 -50.41,-15.76 -78.92,-15.76 -32.1,0 -59.79,6.84 -83.08,20.51 -23.3,13.79 -42.18,31.52 -56.79,53.54 -14.6,22.02 -25.84,45.66 -33.6,71.15 -7.76,25.5 -13.33,51.34 -16.46,77.64z"/>
   <path id="9" class="fil0" d="M7884.33 5914.9l0 -478.35 168.61 0c29.66,0 54.69,4.86 75.21,14.6 20.51,9.73 35.8,23.17 45.77,40.44 9.96,17.15 14.95,36.97 14.95,59.1 0,28.04 -7.77,51.68 -23.41,70.69 -15.64,19 -34.3,33.25 -55.74,42.64 -21.55,9.39 -42.3,15.06 -62.23,17.15l184.83 233.73c-13.56,-2.67 -27.23,-4.06 -40.79,-4.06 -13.56,0 -27.23,1.39 -40.79,4.06l-179.26 -228.17 -21.79 0 0 228.17c-10.89,-2.67 -21.79,-4.06 -32.68,-4.06 -10.89,0 -21.78,1.39 -32.68,4.06zm65.36 -255.28c5.91,0.46 14.25,0.69 25.15,0.69 42.76,0 75.32,-6.95 97.57,-20.74 22.25,-13.91 36.38,-28.85 42.29,-45.08 5.91,-16.22 8.81,-30.82 8.81,-43.8 0,-10.66 -3.13,-22.6 -9.39,-35.81 -6.14,-13.32 -17.73,-25.14 -34.76,-35.57 -16.92,-10.43 -40.21,-15.65 -69.88,-15.65l-59.79 0 0 195.96z"/>
   <path id="10" class="fil0" d="M8594.49 5914.9l0 -445.67c-8.12,0 -22.37,0.92 -42.53,2.66 -20.28,1.85 -40.1,4.06 -59.68,6.72 -19.47,2.55 -36.04,4.87 -49.6,6.95 2.67,-8.22 4.06,-16.33 4.06,-24.56 0,-8.11 -1.39,-16.34 -4.06,-24.45l364.1 0c-2.67,8.11 -4.06,16.34 -4.06,24.45 0,8.23 1.39,16.34 4.06,24.56 -9.5,-1.62 -27.23,-4.17 -53.31,-7.64 -25.95,-3.6 -47.04,-5.91 -63.27,-6.96 -16.22,-1.16 -28.16,-1.73 -35.92,-1.73l0 445.67c-8.11,-2.67 -17.38,-4.06 -27.81,-4.06 -10.43,0 -21.09,1.39 -31.98,4.06z"/>
   <g>
    <path class="fil1" d="M4497.45 3196.44c19.2,-19.2 68.52,28.66 20.12,9.38 -0.41,-0.17 -50.36,20.86 -20.12,-9.38zm-379.24 -270.89c-235.37,-54.84 -142.99,-90.29 -469.52,-90.29 -167.93,0 -387.93,130.99 -470.13,306.42 -155.96,332.92 74.46,650.71 307.59,650.71 115.29,0 247.96,3.71 348.49,-102.98 120.91,-128.36 133.52,-330.46 28.22,-472.37l-121.88 -94.83c-273.47,-110.81 -402.58,345.11 -92.29,345.11 92.18,0 100.1,-51.29 122.43,-76.21 27.85,-31.05 -4.65,-15.95 40.1,-32.14 0,558.84 -871.54,137.4 -420.96,-294.54 256.16,-245.57 715.07,-4.59 836.31,23.65l0 36.11c-59.66,4.97 -108.33,23.51 -162.53,36.14l0 36.11c140.35,0 273.68,25.7 389.8,97.79l278.39 209.2c-9.81,-117.93 -172.77,-217.45 -198.66,-288.93 100.22,23.34 413.07,274.17 462.81,342.69 29,39.95 19.79,-18.45 6.74,18.49l-106.82 0.53c-420.94,-32.74 -788.92,-277.9 -832.26,-289.48 10.75,40.22 2,18.64 26.25,45.98 1.35,1.5 48.51,38.8 50.28,40.04 262.03,182.17 617.6,311.28 952.82,311.28 89.27,0 408.34,-88.17 511.77,-138.36 202.9,-98.42 242.19,-113.73 409.25,-258.94 -52.07,4.33 -26.37,2.98 -57.46,14.78 -39.4,14.95 -151.32,92.35 -262.66,134.65l-373.05 114.52c-98.59,23.23 -191.35,21.93 -282.02,43.06 82.69,-123.49 229.48,-211.63 348.14,-301.98 47.71,-36.32 76.02,-62.5 139.45,-77.26 -58.31,87.07 -106.48,80.63 -216.71,288.93 115.03,-30.71 280.17,-325.06 704.31,-325.06 -64.29,-87.73 -91.61,-29.54 -180.6,-72.22 73.01,-99.65 496.79,-215.11 702.6,-142.89 19.34,6.79 38.69,14.87 63.07,27.35l63.82 44.53c280.69,273.9 50.06,537.62 -114.29,570.8 -75.08,15.15 -177.05,-18.59 -221.89,-54.04 -54.8,-43.35 -75.98,-122.35 -77.94,-211 103.07,37.31 8.3,108.36 216.71,108.36 103.51,0 221,-264.13 12.97,-339.31 -126.46,-45.73 -236.59,18.87 -299.11,125.41 -152.78,260.46 40.66,557.09 356.42,550.05 230.23,-5.12 399.25,-194.01 399.25,-390.33 0,-185.48 -12.22,-293 -175.97,-438.05 -148.37,-131.43 -283.13,-139.83 -474.16,-139.83 -108.74,0 -235.58,69.45 -325.06,90.29 30.54,-114.44 144.47,-169.49 144.47,-343.11l-72.23 0c-27.32,117.2 -87.85,218.18 -162.46,288.99 -127.68,121.2 -484.14,294.91 -700.3,473.56 -39.86,32.96 -93.21,79.31 -130.49,104.28 -132.93,-70.34 -273.04,-230.63 -505.2,-343.6 -89.94,-43.76 -301.96,-174.77 -364.86,-249.13 -166.56,-196.85 -50.06,-260.52 -213.49,-274.1 3.31,148.41 107.27,256.72 162.53,361.17z"/>
    <path class="fil2" d="M6050.52 921l5.39 5.4c-0.36,-0.36 -7.18,-3.6 -5.39,-5.4zm-434.87 -189.55c70.17,15.7 25.57,11.94 37.58,45.09l-108.35 0 0 -36.11c35.04,-3.67 56.24,-12.25 70.77,-8.98zm-757.03 45.09c45.32,-61.86 119.91,-70.56 144.49,-162.53 88.49,23.63 24.61,25.32 94.64,85.96 39.07,33.82 25.44,10.23 55.77,34.51 32.74,26.21 15,0.12 30.16,42.06l-325.06 0zm-361.18 -361.18c0,85.24 -7.5,100.1 17.49,163.09 11.84,29.8 40.1,95.32 54.76,125.85 -68.92,-16.04 -75.57,-38.12 -144.49,-54.18 -52.45,35.13 -24.23,36.54 -90.29,54.18 -31.82,-60.13 -72.24,-126.45 -72.24,-216.71 0,-165.31 232.51,-72.76 234.77,-72.23zm848.76 307c-104.26,-24.29 -243.56,-77.08 -278.28,-175.2 -65.89,-186.23 386.64,-323.44 386.64,-131.8 0,192.14 -4.8,152.36 -108.36,307zm-758.48 -288.95c0,-95.73 112.47,-108.36 180.6,-108.36 53.56,0 373.7,152.81 112.64,329.36 -24.91,16.85 -119.38,67.95 -148.75,67.95 -106.5,0 -144.49,-198.19 -144.49,-288.95zm1119.67 252.84c-77.62,-41.08 -32.81,4.88 -54.18,-54.18 -87.06,7.23 -83.27,35.71 -162.53,54.18l59.32 -232.45c20.37,-127.79 247.68,-106.69 247.68,51.85 0,40 -57.21,131.2 -90.29,180.6zm-668.19 -270.89l-36.11 0c-43.15,-161.61 -277.97,-232.96 -415.29,-143.54 -63.07,41.06 -24.06,49.22 -98.82,43.15 -64.93,-5.27 -143,-40.47 -230.83,23.52 -171.32,124.78 -27.13,344.13 22.57,438.05 -110,9.15 -292.6,193.01 -383.4,266.73 -48.02,38.99 -89.38,63.43 -122.24,112.51 25.4,95.19 255.1,230.89 283.06,545.97l-12.2 284.73 72.24 0c1.77,-79.34 12.23,-56.24 18.07,-126.4 86.81,31.42 -14.59,4.7 72.22,36.11l0 -36.11c-89.9,-24.01 -46.15,-66.91 -56.46,-178.29 -5.03,-54.5 -33.91,-148.07 -55.13,-197.71 -16.04,-37.47 -0.9,-1.49 -17.32,-36.85 -88.69,-190.92 -108.06,-141.08 -178.08,-273.38l334.14 -279.89c56.98,-21.76 143.19,-9.28 207.61,-9.09l869.49 -11.71c116.56,0.85 436.32,-37.71 529.8,21.05 86.92,54.65 244.31,206.22 316.32,225.46 -5.54,66.8 -30.95,79.62 -69.55,129.09 -31.7,40.61 -53.6,68.42 -81.01,117.63 -185.19,332.51 -68.07,515.49 -66.15,602.05 205.62,-4.59 -23.97,-105.73 98.18,-461.66l81.21 -153.57c2.11,-3.29 4.84,-7.83 6.97,-11.07l30.16 -42.09c2.33,-2.94 5.76,-7.01 8.13,-9.94l118.48 -188.51c-58.67,-15.68 -187.06,-118.25 -216.71,-162.53 52.75,12.29 55.08,21.12 106.78,39.01 25.64,8.88 20.03,9.77 56.12,16.17 163.4,28.97 -19.82,-63.75 -132.63,-211.87 -29.65,-38.9 -12.48,-17.47 -34.98,-37.26 -0.26,-0.21 -122.18,-47.69 -1.94,-155.81 49.72,-44.73 68,-29.48 151.12,-29.48l-60 31.18c-40.91,29.99 -17.11,-23.44 -39.01,50.62 -40.78,137.87 207.36,195.1 207.36,-27.62 0,-225.73 -397.28,-237.34 -397.28,90.29 0,100.78 69.26,119.87 90.29,198.66 -39.72,-26.6 -72.1,-55.78 -111.51,-87.13 -85.37,-67.89 -56.53,-16.66 -141.31,-57.36 88.41,-132.03 191.98,-370.54 2.81,-454.3 -118.08,-52.28 -169.74,37.67 -281.42,-24.33 -236.08,-131.07 -410.74,11.9 -443.76,135.52z"/>
    <path class="fil3" d="M4912.81 1805.91c0,-70.63 106.2,-53.8 148.17,-40.3 107.85,34.71 128.77,216.69 -23.99,256.88 -27.73,7.29 -82.65,11.34 -88.41,9.7 -43.88,-12.5 -35.77,59.92 -35.77,-226.28zm-180.58 0l0 559.81c0,108.83 -78.58,-14.42 -90.31,126.42 287.63,0 405.69,43.96 415.37,-72.24 -71.3,0 -73.29,-5.67 -126.42,-18.04 -20.71,-140.97 -12.41,-246.7 -18.06,-270.89 61.62,32.59 41.61,21.73 86.68,75.85 30.2,36.24 41.32,55.77 71.84,90.71 31.48,36.03 44.6,53.33 73.84,88.67 40.7,49.25 57.4,41.38 74.65,105.94 117.08,0 175.87,4.08 270.89,-18.06 -30.61,-114.63 -14.61,19.19 -185.18,-176.01 -69.73,-79.8 -140.01,-126.19 -157.95,-203.23 212.19,-17.64 330.78,-433.42 -162.53,-433.42l-288.95 0c-46.78,0 -26.98,-7.47 -45.41,29.14 -41.57,82.56 81.54,22.16 81.54,115.35z"/>
    <path class="fil4" d="M7441.06 3756.28c445.66,0 403.17,-595.95 72.24,-595.95 -105.19,0 -193.33,58.44 -233.07,146.81 -28.39,63.09 -20.34,7.85 -1.7,87.94 2.54,-3.63 5.44,-14.31 6.44,-11.6 0.28,0.7 68.53,-132.87 138.04,-132.87 377.65,0 256.96,379.25 54.18,379.25 -144.27,0 -231.38,-44.09 -301.43,-186.17 -56.24,-114.09 -56.41,-228.84 -113.94,-337.54 70.94,-34.04 120.4,-36.24 144.49,-126.42 -124.78,-59.87 -58.45,57.1 -293.99,-121.37 -68.23,-51.7 -177.61,-129.08 -283.9,-131.45 56.89,84.95 102.62,41.31 239.45,212.02 78.39,97.81 111.96,183.37 141.24,328.28 46.14,228.38 154.43,489.07 431.95,489.07z"/>
    <path class="fil5" d="M2998.57 3124.19c-51.88,222.71 -105.63,541.78 -397.31,541.78 -203.74,0 -265.62,-319.67 -57.65,-384.19 114.2,-35.41 188.7,34.98 243.28,126.33 1.75,2.92 5.19,9.11 6.59,11.48 1.39,2.41 3.91,7.98 6.45,11.62 0,-337.94 -487.6,-309.11 -487.6,54.18 0,171.26 125.48,286.03 295.99,295.16 156.48,8.36 300.34,-83.98 374.38,-220.74 36.69,-67.77 46.8,-162.19 70.07,-236.93 48.33,-155.13 115.97,-480.47 379.22,-541.79 -41,-55.97 -1.65,-40.4 -74.32,-23.47 -27.28,6.34 -32.95,10.9 -53.34,21.01l-126.87 91.04c-229.12,178.59 -229.76,97.39 -284.52,125.67 -60.06,31.02 14.74,121.3 105.63,128.85z"/>
    <path class="fil6" d="M5815.77 2275.43c0,241.01 230.51,293.03 344.26,200.65 55.65,-45.17 53.03,-69.08 53.03,-164.53 -49.57,36.32 -61.22,108.35 -144.47,108.35 -220.39,0 -110.76,-325.06 0,-325.06 253.53,0 288.96,126.42 288.96,361.19 -51.81,-20.9 -17.6,-32.21 -72.25,-72.24 0,264.91 -117.69,296.99 -144.46,397.31 503.65,-266.52 303.28,-790.42 11.22,-803.47 -166.18,-7.42 -336.29,88.48 -336.29,297.8z"/>
    <path class="fil7" d="M3594.52 2365.72c0,145.83 171.57,379.2 307,415.38 -17.35,-65 -12.29,-29.31 -45.91,-80.52 -71.28,-108.51 -80.49,-163.9 -80.49,-298.72 -78.39,57.41 6.14,32.86 -72.25,90.28 0,-108.67 -14.18,-182.81 28.78,-260.17 104.7,-188.56 386.57,-155.52 386.57,79.58 0,61.21 -65.2,126.42 -126.42,126.42 -122.26,0 -81.56,-62.26 -144.46,-108.36 -34.83,62.01 -5.8,123.39 51.51,165.2 246.06,179.36 478.19,-208.09 242.86,-423.44 -196.58,-179.87 -547.19,-18.36 -547.19,294.35z"/>
    <path class="fil8" d="M5996.34 3738.21c-6.14,36 -182.88,90.84 -219.46,105.58 -669.71,269.76 -1098.78,155.17 -1730.91,-87.51 269.42,180.38 613.48,343.1 957.14,343.1 289.72,0 567.58,-94.4 824.92,-222.51 27.15,-13.5 193.39,-113.58 189.38,-123.62l-21.07 -15.04z"/>
    <path class="fil9" d="M3811.23 794.61c120.1,0 108.35,-61.06 108.35,-126.42 0,-60.06 -32.42,-52.89 -90.29,-54.17 57.66,-102.64 213.28,8.12 180.58,162.53 -27.05,9.58 14.63,13.24 -41.36,-11.65 -2.39,-1.06 -8.32,-4.78 -12.82,-6.42 -13.9,59.68 -37.11,87.71 -73.44,125.21l-125.22 110.04c-10.73,22.09 -30.16,-8.62 0.53,22.07 40.81,40.81 188.04,-50.91 219.25,-73.67 38.58,-28.13 75.27,-52.85 98.65,-100.04 155.49,-313.82 -251.63,-517.79 -356.7,-246.82 -20.69,53.34 -17.19,116.84 37.18,164.21 0.15,0.13 54.11,35.13 55.29,35.13z"/>
    <path class="fil10" d="M6068.58 1607.24c0,116.89 -9.02,214.64 106.89,308.47 88.54,71.67 102.4,52.73 254.29,52.73l0 -36.13c-93.06,0 -143.27,-11.48 -188.36,-64.44 -270.06,-317.17 209.3,-587.61 242.54,-712.09 -127.58,61.22 -130.65,49.48 -257.52,175.9 -57.1,56.91 -157.84,174.1 -157.84,275.56z"/>
    <path class="fil11" d="M3883.45 1715.6c0,219.22 -215.17,232.19 -270.87,270.88 103.84,8.66 159.19,67.72 294.27,-84.95 190.49,-215.3 -40.87,-637.97 -348.44,-709.64 55.45,82.84 140.79,135.14 198.96,216.39 23.4,32.72 65.78,92.12 84.76,131.94 16.15,33.9 41.32,134.3 41.32,175.38z"/>
    <path class="fil12" d="M3450.05 1697.55c0,145.75 111.66,266.05 301.11,192.78 60.6,-23.44 58.38,-27.35 60.07,-102.49 -58.81,31.12 -270.89,162.74 -270.89,-90.29 87.92,31.83 -6.06,-1.11 54.07,38.27 85.36,55.88 144.57,18.87 144.57,-110.51 0,-87.07 -56.82,-15.89 -90.28,-108.36 -53.29,28.2 -198.65,111 -198.65,180.6z"/>
    <path class="fil13" d="M6285.29 1625.31c112.32,212.27 145.43,59.98 234.78,36.11 -2.13,94.85 -18.54,68.96 -36.13,144.49 -103.77,0 -106.63,34.74 -194,-3.44l-79.9 -17.64c1.11,3.67 93.66,111.36 201.67,111.36 237.94,0 231.9,-379.24 0,-379.24 -75.57,0 -100.95,60.24 -126.42,108.36z"/>
    <path class="fil14" d="M3395.88 2311.55c0,216.26 105.83,310.98 234.75,397.3 -21.22,-91.14 -78.58,-116.65 -101.72,-223.32 -17.94,-82.65 23.44,-282.34 -60.81,-282.34 -55.52,0 -72.22,52.92 -72.22,108.36z"/>
    <path class="fil15" d="M6429.76 2690.78c95.13,-63.69 137.04,-104.54 187.36,-209.93 31.4,-65.76 92.14,-295.71 -24.83,-295.71 -94.38,0 -39.57,163.91 -61.05,263.99 -4.64,21.7 -32.29,102.6 -41.63,120.9 -39.61,77.47 -52.13,28.13 -59.85,120.75z"/>
    <path class="fil16" d="M4894.76 144.49c0,76.72 80.56,58.48 108.36,162.53 78.13,-20.86 29.56,-7.83 78.15,-66.34 79.88,-96.15 100.03,-64.99 8.7,-165 -54.01,-59.13 -14.35,-37.31 -86.85,-75.68 -15.75,58.91 -8.17,35.24 -49.1,77.32 -16.54,17 -59.26,48.8 -59.26,67.17z"/>
    <path class="fil17" d="M3450.05 1354.42c0,98.12 41.83,-15.01 307,162.53 -14.55,-174.77 -307,-293.21 -307,-162.53z"/>
    <path class="fil18" d="M6285.29 1480.84c73.04,-19.51 92.68,-66.97 151.29,-83.48 114.99,-32.38 105.48,40.99 173.78,-60.98 -50.85,-75.96 -98.87,-83.89 -188.88,-26.47 -66.87,42.63 -117.05,88.79 -136.19,170.93z"/>
    <path class="fil19" d="M6068.58 2383.79c85.81,0 44.75,-138.26 18.07,-252.82 -62.88,16.79 -76.1,23.16 -66.44,99.78 6.48,51.19 6.63,153.04 48.37,153.04z"/>
    <path class="fil20" d="M3955.69 2311.55l0 90.31 72.25 0 21.37 -180.13c3.75,-51.92 -37.58,-62.56 -75.55,-72.72 -1.81,81.68 -18.07,71.78 -18.07,162.54z"/>
    <path class="fil21" d="M5093.4 3358.97c13.68,-24.34 9.88,-19.97 18.07,-54.18l-54.18 0c11.84,49.51 -7.33,28.14 36.11,54.18z"/>
    <path class="fil22" d="M4308.71 3605.78l80.12 41.76 -14.28 27.4 -45.36 -23.64 -12.81 24.57 39.32 20.49 -14.29 27.41 -39.31 -20.5 -15.36 29.48 46.86 24.43 -14.28 27.4 -81.63 -42.55 71.02 -136.25zm128.16 166.94c7.8,17.69 17.94,28.45 30.43,32.28 5.44,1.67 10.4,1.61 14.89,-0.22 4.5,-1.81 7.43,-4.95 8.81,-9.44 1.08,-3.53 0.38,-7.02 -2.13,-10.46 -2.22,-2.46 -7.1,-6.42 -14.65,-11.85 -7.55,-5.44 -12.8,-9.51 -15.76,-12.19 -2.97,-2.7 -6.72,-7.64 -11.28,-14.83 -4.56,-7.2 -4.93,-16.98 -1.14,-29.33 4.25,-13.85 12.85,-23.7 25.78,-29.54 12.94,-5.84 27.21,-6.36 42.83,-1.57 8.69,2.67 16.11,6.35 22.25,11.06 6.13,4.71 11.65,10.93 16.56,18.68l-23.19 22.53c-7.44,-12.08 -15.51,-19.46 -24.2,-22.13 -4.48,-1.38 -8.54,-1.33 -12.19,0.16 -3.65,1.47 -6.03,4.05 -7.16,7.72 -1.08,3.53 -0.88,6.49 0.61,8.88 1.5,2.39 3.17,4.35 5,5.88 1.83,1.53 6.75,5.12 14.75,10.76 8,5.66 14.18,11.53 18.56,17.62 6.76,10.41 8.1,22.26 4.02,35.57 -4.59,14.94 -13.41,25.53 -26.47,31.78 -13.07,6.24 -27.74,6.87 -44.04,1.86 -20.51,-6.29 -35.37,-18.87 -44.59,-37.76l22.31 -25.46zm190.77 -54.9l105.98 16.11 -5.25 34.55 -33.5 -5.09 -17.84 117.36 -38.76 -5.9 17.84 -117.35 -33.72 -5.12 5.25 -34.56zm197.34 142.05c5.8,0.47 10.6,2.92 14.37,7.35 3.77,4.44 5.42,9.64 4.94,15.59 -0.49,5.94 -2.95,10.81 -7.39,14.58 -4.44,3.78 -9.57,5.43 -15.37,4.96 -5.81,-0.47 -10.6,-2.93 -14.37,-7.37 -3.77,-4.44 -5.42,-9.64 -4.94,-15.58 0.48,-5.81 2.9,-10.64 7.27,-14.49 4.38,-3.85 9.54,-5.53 15.49,-5.04zm237.85 -112.53c16.61,-0.57 30.33,3.59 41.15,12.46 10.81,8.86 16.48,20.69 16.98,35.45 0.38,11.07 -1.74,19.96 -6.35,26.66 -4.6,6.69 -7.62,10.89 -9.05,12.56 -1.44,1.69 -2.81,3.19 -4.11,4.52 -1.31,1.32 -3.13,2.99 -5.49,4.98 -2.34,2 -4.83,4.18 -7.45,6.54l-26.09 22.85 61.11 -2.51 1.07 31.32 -115.87 3.94 -0.81 -23.86 47.4 -44.04c2.62,-2.65 4.92,-5 6.84,-7.05 1.92,-2.06 4.59,-5.03 7.94,-8.91 3.39,-3.88 6.05,-7.92 8.04,-12.11 2.03,-4.19 2.97,-8.13 2.84,-11.82 -0.17,-5.12 -2.09,-9.25 -5.75,-12.38 -3.66,-3.15 -8.12,-4.64 -13.37,-4.46 -5.69,0.19 -10.13,2.16 -13.35,5.9 -3.2,3.73 -4.71,8.58 -4.51,14.54l0.13 3.63 -38.77 1.31c-0.62,-18.18 4.23,-32.48 14.54,-42.92 10.3,-10.45 24.61,-15.98 42.93,-16.6zm210.14 -14.85c18.49,-2.11 34.43,3.53 47.84,16.91 13.4,13.41 21.43,31.87 24.12,55.41 2.68,23.4 -0.99,43.15 -11.01,59.31 -10.04,16.13 -24.29,25.26 -42.78,27.38 -18.35,2.09 -34.23,-3.6 -47.63,-17.04 -13.41,-13.49 -21.44,-31.91 -24.12,-55.3 -2.69,-23.54 0.95,-43.33 10.9,-59.42 9.97,-16.04 24.19,-25.13 42.68,-27.25zm-14.84 82.24c1.48,12.95 4.8,22.93 9.97,30 5.16,7.02 11.49,10.12 18.98,9.27 7.33,-0.84 12.69,-5.24 16.07,-13.18 3.38,-7.96 4.32,-18.47 2.83,-31.56 -1.48,-12.95 -4.8,-22.93 -9.97,-29.99 -5.16,-7.03 -11.42,-10.14 -18.76,-9.3 -7.33,0.84 -12.73,5.28 -16.18,13.29 -3.43,8.04 -4.42,18.52 -2.94,31.47zm212.17 -122.48c16.05,-4.31 30.35,-3.36 42.9,2.83 12.54,6.18 20.74,16.42 24.57,30.68 2.87,10.71 2.82,19.84 -0.15,27.41 -2.97,7.56 -4.96,12.33 -5.98,14.29 -1.01,1.97 -2.01,3.74 -2.98,5.33 -0.97,1.58 -2.37,3.61 -4.22,6.09 -1.83,2.48 -3.75,5.17 -5.77,8.06l-20.24 28.16 58.95 -16.27 8.13 30.25 -111.97 30.07 -6.19 -23.05 36.21 -53.63c1.94,-3.17 3.65,-5.98 5.06,-8.42 1.4,-2.44 3.33,-5.94 5.72,-10.47 2.42,-4.55 4.1,-9.08 5.09,-13.62 1.03,-4.54 1.05,-8.59 0.09,-12.16 -1.33,-4.94 -4.13,-8.53 -8.41,-10.75 -4.27,-2.24 -8.96,-2.68 -14.03,-1.32 -5.49,1.48 -9.38,4.4 -11.67,8.77 -2.27,4.36 -2.64,9.42 -1.09,15.18l0.94 3.51 -37.47 10.06c-4.71,-17.57 -3.23,-32.6 4.45,-45.11 7.67,-12.51 20.35,-21.13 38.06,-25.89zm210.65 40.56c2.98,6.3 6.88,10.41 11.73,12.37 4.85,1.95 10.11,1.58 15.76,-1.09 5.52,-2.61 9.24,-6.45 11.17,-11.52 1.92,-5.08 1.66,-10.18 -0.76,-15.31 -2.31,-4.89 -5.9,-7.99 -10.76,-9.3 -4.87,-1.31 -10.12,-0.63 -15.77,2.04l-5.21 2.46 -12.29 -26.01 4.23 -1.53c5,-2.37 8.4,-5.75 10.18,-10.12 1.78,-4.38 1.64,-8.75 -0.43,-13.11 -1.88,-3.99 -4.99,-6.65 -9.31,-7.98 -4.32,-1.33 -8.79,-0.91 -13.42,1.28 -4.62,2.18 -7.71,5.45 -9.27,9.8 -1.56,4.36 -1.15,9.03 1.22,14.04l-31.98 15.12c-6.31,-13.36 -6.62,-26.22 -0.92,-38.58 5.71,-12.36 16.01,-22.06 30.91,-29.1 13.87,-6.56 26.81,-8.45 38.83,-5.63 12.01,2.8 20.66,9.79 25.94,20.96 2.55,5.4 3.73,10.89 3.54,16.48 -0.19,5.59 -1.19,9.95 -3,13.09 -1.82,3.14 -3.28,5.37 -4.39,6.68 -1.11,1.3 -2.7,2.76 -4.77,4.36 2.62,-0.76 4.88,-1.24 6.75,-1.42 1.88,-0.18 6.73,0.01 14.53,0.56 7.81,0.55 14.81,7.38 21,20.48 6.19,13.1 6.24,26.35 0.17,39.76 -6.08,13.4 -16.82,23.75 -32.24,31.03 -16.82,7.96 -31.92,9.99 -45.32,6.1 -13.38,-3.88 -23.78,-13.66 -31.19,-29.33l35.07 -16.58z"/>
   </g>
  </g>
 </g>
</svg>
